<?xml version="1.0" encoding="utf-8"?>
<!-- Generator: Adobe Illustrator 26.0.1, SVG Export Plug-In . SVG Version: 6.00 Build 0)  -->
<svg version="1.1" id="Layer_1" xmlns="http://www.w3.org/2000/svg" xmlns:xlink="http://www.w3.org/1999/xlink" x="0px" y="0px"
	 viewBox="0 0 1080 1080" style="enable-background:new 0 0 1080 1080;" xml:space="preserve">
<style type="text/css">
	.st0{fill:#2F0F10;}
	.st1{fill:#F8EFEC;}
	.st2{fill:#E4DED4;}
	.st3{fill:#BBAE8D;}
	.st4{fill:#553A31;}
	.st5{fill:#2E1011;}
	.st6{fill:#231F20;}
	.st7{fill:#FAF6F3;}
	.st8{fill:#EFE6E9;}
	.st9{fill:#FFFFFF;}
	.st10{fill:#6A3A44;}
	.st11{fill:#E3DBD2;}
</style>
<path class="st0" d="M950.7,575.1c-1.4,10.9-2.6,21.8-4.4,32.6c-12.4,77-42.7,146.1-93.9,205.2c-46.8,54.1-103.6,94.3-170.8,119.6
	c-57.1,21.5-116.1,29.2-176.7,24.1c-63.4-5.4-122.5-24.6-176.7-58c-77-47.6-133-113.4-168.1-196.8c-18.5-43.9-28.1-89.9-30.2-137.3
	c-2.4-55.4,4.3-109.7,23.5-162.1c34.5-94.3,94.1-168.2,180.7-219.4c41.3-24.4,85.8-40.8,133.3-49c52.3-9.1,104.5-8.7,156.4,2
	c57.9,11.9,111,35.5,158.2,70.9c71.6,53.7,121.8,123,149.3,208.5c9.7,30,15.7,60.5,18.7,91.8c0.1,1.3,0.5,2.6,0.8,3.9
	C950.8,532.3,950.8,553.7,950.7,575.1z M540.4,948.1c14.2,0,28.3-0.6,42.4-2.2c44.7-5,87.5-16.8,128-36.6
	c39.3-19.2,75.2-43.5,106.6-74c29.4-28.5,54.8-60.2,74.1-96.2c23.5-43.8,39.1-90.3,45.8-139.7c6.6-48.5,5.2-96.7-5.7-144.5
	c-12.7-56-35.2-107.9-69.6-154C804.2,223.4,728.5,172.4,634.6,149c-27.7-6.9-55.8-11.1-84.5-11c-25.8,0.1-51.5,0.6-77.1,5
	c-67.4,11.8-127.6,39-181.1,81.4c-39,30.9-70.9,67.9-96.1,110.6c-19.9,33.7-34.4,69.7-44.3,107.7c-11.4,43.9-13.6,88.6-10.9,133.4
	c2.1,34.8,9.8,68.8,21.3,101.9c22.4,64.7,59.5,119.7,109.6,165.8c44.8,41.1,96.7,70.5,155,88.1C463.6,943.1,501.6,948.3,540.4,948.1
	z"/>
<path class="st1" d="M950.7,575.1c0-21.4,0.1-42.8,0.1-64.1c1.5,1.3,1.1,3,1.1,4.7c0,18.3,0,36.6,0,54.8
	C951.9,572.1,952.3,573.8,950.7,575.1z"/>
<path class="st2" d="M540.4,948.1c-38.7,0.2-76.7-5-113.8-16.2c-58.3-17.6-110.2-47-155-88.1c-50.1-46-87.2-101.1-109.6-165.8
	c-11.5-33.1-19.2-67.1-21.3-101.9c-2.7-44.8-0.6-89.5,10.9-133.4c9.9-38,24.4-73.9,44.3-107.7c25.2-42.7,57.1-79.8,96.1-110.6
	c53.4-42.4,113.6-69.6,181-81.4c25.6-4.5,51.3-4.9,77.1-5c28.7-0.1,56.8,4.1,84.5,11c93.9,23.4,169.7,74.4,227.5,151.9
	c34.5,46.2,56.9,98,69.6,154c10.9,47.8,12.3,96,5.7,144.5c-6.7,49.4-22.3,95.9-45.8,139.7c-19.4,36-44.7,67.7-74.1,96.2
	c-31.5,30.5-67.3,54.8-106.6,74c-40.5,19.8-83.3,31.5-128,36.6C568.7,947.5,554.5,948.1,540.4,948.1z M169.5,417.5
	c-5.7,15.3-9.4,31.2-12.6,47.2c-8,40.6-9.5,81.6-4.9,122.8c5.5,49.3,19.1,96.2,42.5,140c35.7,66.8,85.6,120,151.3,158.1
	c78.3,45.4,162.6,60.3,251.7,48c49.3-6.8,95.4-23.8,138.3-49.3c75.1-44.8,130.9-106.6,164.6-187.8c12.8-30.9,21.9-62.9,26.4-96
	c5.8-42.2,5.2-84.4-2-126.4c-3.3-19.5-7.7-38.8-14.7-57.4c-0.1-0.7-0.1-1.3-0.3-2c-8-24.6-19-48-31.6-70.5
	c-20.4-36.2-46.5-68.3-77.3-96.2c-35.8-32.5-76.3-58-121.8-74.9c-25.2-9.4-51.1-16.8-78-20.8c-39.5-5.9-79-6.3-118.5-0.7
	c-33.1,4.7-64.9,14.2-95.7,27.4c-46.2,19.9-87,47.6-122.5,82.9c-29.5,29.4-53.2,63.1-71.9,100.2
	C183.6,380.1,175.4,398.3,169.5,417.5z"/>
<path class="st3" d="M910.2,416.7c7,18.6,11.4,37.9,14.7,57.4c7.1,42,7.8,84.2,2,126.4c-4.6,33.1-13.6,65.1-26.4,96
	c-33.7,81.2-89.5,142.9-164.6,187.8c-42.8,25.6-88.9,42.5-138.3,49.3c-89.1,12.4-173.4-2.6-251.7-48
	c-65.7-38.1-115.6-91.4-151.3-158.1c-23.4-43.8-37-90.7-42.5-140c-4.6-41.2-3.1-82.1,4.9-122.8c3.1-16,6.9-31.9,12.6-47.2
	c5.8,2.1,11.5,4.3,17.3,6.4c29.2,11,58.5,21.8,87.5,33.1c19.3,7.5,39,14.1,57.8,22.9c-5.3,21-8.8,42.2-8.6,64.1
	c0.1,28.6,5.6,55.9,17.1,82c22.5,51,57.9,90.1,109.4,112.7c58.4,25.7,117.7,27.3,176.8,1.4c31.3-13.7,58.1-33.6,79.5-60.5
	c19.7-24.8,34.8-52.2,42.7-82.9c10-38.8,9.8-77.8-1.3-116.5c7.7-5.6,17-7.3,25.6-10.7c25.8-10.2,51.7-20,77.7-29.6
	C870.7,432.6,890.7,425.3,910.2,416.7z M296,516.6c-1.7-4.2-6-3.9-9.5-5.3c1.9-3.4,3.7-6.4,0.8-10.1c-2.3-2.9-3.6-9-5.9-9.2
	c-6-0.7-10.3-3-14.9-6.6c-3-2.4-8.9,1.5-11.7-3.7c-0.1-0.1-0.4-0.2-0.5-0.1c-5,3.1-9.5-0.6-14.2-1.2c-7.8-1.1-15.4-1.9-22.1,3.7
	c-0.6,0.5-1.5,0.9-2.3,0.9c-6.4,0.1-12,2.8-17.9,4.5s-6.8,5-8,9.6c-1.6,6-2.1,12.4-5.9,17.6c-3.2,0.1-6.3,0.2-9.5,0.2
	c-8.2,0.1-11.5,3.3-11.5,11.5c0,27.1,0,54.3,0,81.4c0,8,3.5,11.8,11.5,11.4c4.6-0.2,5.9,1.3,5.4,5.6c-0.6,4.6,1.8,6.8,6.4,6.6
	c3.2-0.1,6.3,0,9.5,0c6.7,0,8.1-1.1,7.9-7.7c-0.1-3.6,1.1-4.4,4.5-4.4c19,0.2,38,0.2,56.9,0c4,0,5,1.1,4.9,5c-0.2,5.8,1.2,7,6.9,7.1
	c3.2,0,6.3,0,9.5,0c6.3-0.1,7.6-1.2,7.5-7.6c-0.1-3.4,0.8-4.5,4.4-4.5c9.5,0.2,12.5-3,12.5-12.6c0-26.3,0-52.6,0-78.9
	c0-1.8-0.1-3.7-0.5-5.4c-1.1-4.5-3.9-7.2-8.8-7.3C299.7,516.8,297.9,516.7,296,516.6z M368.1,769.1c0-15.7,0-31.3,0-47
	c0-6.5-2.2-9.3-8.6-11c-3.5-0.9-7.1-1.7-10.7-2.5c-1.8-0.4-3-1.1-2.8-3.3c0.3-4.8-1.5-8.5-6.2-10.3c-2.5-1-1.8-3-1.6-4.7
	c0.1-2.1,2-1.3,3.1-1.4c7-0.1,14,0,21-0.1c2.1,0,5.4,1,5.4-2.6c0-3-3-2.4-5.1-2.4c-8,0-16,0.2-24-0.1c-4.2-0.1-6,1.4-5.4,5.5
	c0.8,4.8-2,4.7-5.5,4.9c-4,0.2-4.9-1.3-4.6-4.9c0.3-3.1,0-6.3,0-9.5c0-1.6-0.1-3.1-2.2-3.3c-2.1-0.1-2.9,1.1-2.9,3.1
	c0,3.7-0.1,7.3,0,11c0.1,2-0.2,3.5-2.5,4.2c-4.5,1.4-6.7,4.8-6.6,9.4c0,2.5-0.8,3.4-3.3,3.8c-3.9,0.7-7.8,1.9-11.5,3
	c-4.7,1.5-7,4.9-7,9.7c0,31.8-0.1,63.6,0,95.4c0,6.6,3.5,10.2,10,10.6c2.7,0.1,3.2,1.1,3.3,3.5c0.4,10.6,0.5,10.6,11,10.6
	c0.5,0,1,0,1.5,0c2.9,0.3,4.1-0.8,4.2-3.9c0.4-9.9,0.5-9.9,10.7-9.9c0.5,0,1,0,1.5,0c8.6,0,8.8,0,8.6,8.5c-0.1,4.1,1.2,5.5,5.4,5.4
	c10.9-0.2,11,0,11.5-10.7c0.1-2.2,0.6-3.1,3-3.3c7.2-0.7,10.1-4.1,10.2-11.5C368.1,800.1,368.1,784.6,368.1,769.1z M548.6,881
	c23,0,45.2-0.1,67.3,0c4.3,0,6.6-1.3,6.6-5.9c-0.1-26.3-0.1-52.6,0-78.9c0-4.2-1.8-5.9-6.1-5.9c-50.8,0.1-101.6,0.1-152.4,0
	c-4.5,0-6.2,1.7-6.2,6.2c0.1,26,0.1,52,0.1,77.9c0,5.8,0.8,6.5,6.7,6.5c20.8,0,41.6,0,62.4,0c1.4,0,2.9-0.4,4.3,0.5
	c-2.2,4.4-3,10.1-10.1,8.4c-1.5-0.4-2.4,0.4-2.4,2.2c0,2,1.4,1.9,2.7,1.9c12.3,0,24.7,0,37,0c1.4,0,2.7,0,2.7-2
	c0-1.8-0.9-2.6-2.4-2.2C551.8,891.5,551.2,885.7,548.6,881z M813.5,642.2c17.4,0,34.2,0,51.5,0c-3.3,3.7-4.1,7.2-0.7,10.5
	c2.5,2.3,5.6,2.2,8.2,0.2c4.2-3.4,2.5-7.1-0.8-11.4c5.8,1.7,6-1.4,6.2-5c0.8-15.8,1.7-31.6,2.6-47.4c1.5-27.1,2.9-54.2,4.5-81.3
	c0.3-5.8-3-10.4-4.6-15.6c-0.5-1.7-2-1.5-3.3-1.5c-25.1,0-50.3,0-75.4,0c-1.3,0-3-0.4-3.5,1.2c-1.7,5-5,9.5-4.7,15.1
	c2.4,43.2,4.9,86.4,7.2,129.6c0.2,3.7,1.1,5.9,5.7,5.3c-3.3,3.8-4.2,7.4-0.8,10.7c2.5,2.3,5.7,2.3,8.2,0.2
	C817.8,649.5,816.4,645.9,813.5,642.2z M746,841.7c9.8,0,19.7,0,29.5,0c3.2,0,5.8-0.8,6.2-4.3c1.1-9.6-1.3-18.5-13.9-18
	c-2.2,0.1-4.2-0.1-5.7-2.2c-2.7-3.8-4.5-7.8-4.6-12.5c-0.1-2.8,0.7-4.2,3.9-5.1c29.5-7.9,47.9-38.5,41.2-68.2
	c-7-30.9-36.3-50.4-67.3-44.6c-26.2,4.9-45.9,27.3-47.1,53.5c-1.2,27.9,16.2,52.5,42.4,59.3c3.5,0.9,4.3,2.5,4,5.5
	c-0.4,4.1-1.8,7.7-4.1,11.1c-1.4,2.2-3.2,3.3-5.8,3.1c-10.2-0.8-15.2,5.2-14.5,15.4c0.3,5.5,1.4,6.8,6.8,6.8
	C726.7,841.7,736.4,841.7,746,841.7z"/>
<path class="st4" d="M910.2,416.7c-19.5,8.6-39.4,15.8-59.3,23.2c-26,9.6-51.9,19.4-77.7,29.6c-8.6,3.4-17.9,5.1-25.6,10.7
	c-3.5-9.5-7.1-19-11.5-28.1c-21.2-43.6-52.5-77.5-96.5-98.8c-41-19.9-84.1-27.9-129.5-22.3c-33.5,4.1-64.3,15.4-92.6,33.6
	c-31.6,20.4-54.8,48.2-71.3,81.8c-5.4,10.9-9.7,22.2-14.2,33.5c-18.8-8.8-38.5-15.4-57.8-22.9c-29.1-11.3-58.3-22.1-87.5-33.1
	c-5.8-2.2-11.5-4.3-17.3-6.4c5.8-19.2,14.1-37.4,23.1-55.2c18.7-37.1,42.4-70.9,71.9-100.2c35.5-35.4,76.3-63.1,122.5-82.9
	c30.8-13.2,62.6-22.7,95.7-27.4c39.5-5.6,78.9-5.2,118.5,0.7c26.9,4,52.7,11.4,78,20.8c45.5,16.9,86,42.4,121.8,74.9
	c30.7,27.9,56.9,59.9,77.3,96.2c12.6,22.5,23.6,45.9,31.6,70.5C910,415.4,910,416.1,910.2,416.7z M539.8,270.3c26.8,0,53.6,0,80.4,0
	c8.4,0,11.8-3.6,11.8-11.9c0-19.8,0-39.6,0-59.4c0-7.9-3.6-11.6-11.6-11.6c-53.6,0-107.2-0.1-160.8,0c-8.1,0-11.5,3.6-11.5,11.6
	c0,19.3,0,38.6,0,57.9c0,10.4,2.9,13.4,13.3,13.4C487.5,270.3,513.7,270.3,539.8,270.3z M268,334.5c0,20.1,0,40.3,0,60.5
	c0,7.1,2.3,10.1,9.3,11.2c2.1,0.3,3.4,1.1,4,3c1.1,4.2,3.9,5.3,7.9,4.9c2.5-0.3,5-0.2,7.5,0c2.5,0.1,4.4-0.8,5-3.2
	c1-4.1,3.7-5,7.5-4.6c2.5,0.2,5,0.2,7.5,0c2.3-0.1,4,0.5,4.6,2.8c1.2,4.5,4.3,5.4,8.4,4.9c2-0.2,4-0.2,6,0c3.3,0.3,5.5-0.8,6.5-4
	c0.7-2.5,2.2-3.6,5-4c6.1-0.8,8.8-4.3,8.8-10.7c0-40.1,0.1-80.3,0-120.4c0-7.7-3.4-10.9-11-10.9c-21.8,0-43.6,0-65.5,0
	c-8.3,0-11.3,3-11.3,11.5C268,295.2,268,314.9,268,334.5z M718.9,348.5c0,19,0,38,0,57c0,6.6,2,8.6,8.7,8.6c30.5,0,61,0,91.5,0
	c6.5,0,8.8-2.1,8.8-8.6c0-37.8,0-75.6,0-113.4c0-6.4-2.3-8.8-8.8-8.8c-30.5,0-61,0-91.5,0c-6.6,0-8.6,2.2-8.6,8.8
	C718.9,310.9,718.9,329.7,718.9,348.5z M523.7,291.1c0,1.8,0,3.6,0,5.5s0.9,3.4,2.9,3.4c1.9,0,3.1-1.3,3.1-3.2
	c0.1-3.8,0.2-7.6-0.1-11.4c-0.1-1.8-1.4-3-3.4-2.8c-1.8,0.2-2.5,1.5-2.5,3.2C523.7,287.4,523.7,289.2,523.7,291.1z M556.3,291.7
	c0-1.8,0-3.6,0-5.5c0-2-0.7-3.8-2.9-3.9c-2.2,0-3.1,1.6-3.2,3.7c0,3.3,0,6.6,0,9.9c0,2,0.8,3.8,3,3.9c2.3,0.1,3-1.6,3-3.7
	C556.3,294.7,556.3,293.2,556.3,291.7z M483.6,285.6c-0.1-1.4-0.6-2.2-1.5-2.8c-1.1-0.8-2.4-0.7-3.2,0.2c-2.8,3.2-5.2,6.8-7,10.7
	c-0.5,1.1,0.1,2.3,1.2,3c0.9,0.6,2.1,0.8,2.8,0.1C479.3,293.4,481.6,289.4,483.6,285.6z M599.3,282.3c-2.1,0.6-3.8,1.8-2.4,4.2
	c1.8,3.1,3.8,6.1,5.9,9.1c0.9,1.4,2.3,1.9,3.8,1c1.8-1,1.9-2.7,1-4.3c-1.8-3-3.7-5.8-5.7-8.6C601.3,282.9,600.5,282.4,599.3,282.3z
	 M584.3,293.3c-2.1-3.4-4-7.4-7.3-10.5c-1-0.9-2.2-0.4-3.2,0.4c-1.2,1-1.3,2.4-0.5,3.6c1.9,3.1,4,6.1,6,9.1c0.9,1.3,2.2,1.5,3.5,0.9
	C584,296.2,584.4,295.1,584.3,293.3z M507.1,286c0.1-1.8-0.4-2.8-1.5-3.4c-1.2-0.6-2.5-0.3-3.2,0.6c-2.3,3.2-4.5,6.6-6.5,10
	c-0.6,1-0.2,2.3,0.8,3.1c1,0.9,2.4,1.1,3.2,0.3C503.1,293.4,505.2,289.5,507.1,286z M462.8,284.5c-0.6-1.4-1.8-2.9-3.9-1.7
	c-3,1.7-5.6,4.2-7.4,7.1c-1.2,2.1-0.1,3.9,2.4,4.2C456,294.3,463,287.1,462.8,284.5z M620,282.4c-2.3,0.6-3.9,2-2.1,4.5
	c1.8,2.5,4.1,4.9,6.5,6.6c2.2,1.6,4.2,0.5,4.5-2.4C629.1,289.1,622.3,282.4,620,282.4z"/>
<path class="st5" d="M332.1,480c4.5-11.3,8.8-22.6,14.2-33.5c16.5-33.6,39.7-61.5,71.3-81.8c28.3-18.2,59.1-29.5,92.6-33.6
	c45.5-5.6,88.5,2.4,129.5,22.3c43.9,21.3,75.2,55.2,96.5,98.8c4.4,9.1,8,18.6,11.5,28.1c11.1,38.7,11.2,77.7,1.3,116.5
	c-7.9,30.7-23,58.1-42.7,82.9c-21.3,26.9-48.1,46.8-79.5,60.5c-59.1,25.8-118.4,24.2-176.8-1.4C398.5,716.1,363.1,677,340.6,626
	c-11.5-26-17-53.3-17.1-82C323.3,522.2,326.8,501,332.1,480z M406.1,643.9c11.4,0,21.7-0.2,31.9,0.1c3.8,0.1,6-1.2,8.2-4.2
	c21.7-28.2,42.5-57.2,65.1-84.7c1.2-1.5,2-3,2-4.9c-0.1-7-0.1-14,0-21c0.1-2.7-1-3.4-3.5-3.3c-3.8,0.2-7.7,0.2-11.5,0
	c-9.7-0.4-18.6-3-26.3-9.3c-11.5-9.5-14.9-22-13.4-36.2c1.4-13.8,14-27.6,27.7-29.8c11.2-1.8,22.6-0.2,33.9-0.9
	c4.6-0.3,5.4,1.3,5.4,5.6c-0.2,53.3-0.1,106.6-0.1,159.9c0,16.8,0.1,33.7-0.1,50.5c0,3.8,1,4.9,4.8,4.7c7.2-0.3,14.3-0.2,21.5,0.1
	c3.6,0.2,4.4-1.1,4.4-4.5c-0.2-15.7-0.1-31.3-0.1-47c0-54.8,0-109.6-0.2-164.4c0-3.5,0.5-5,4.5-4.8c8.5,0.3,17,0,25.5,0.1
	c12.5,0.2,23.5,4.5,30.5,15.1c15.2,23.3,3,56.4-26.7,60.1c-6.3,0.8-12.6,0.8-18.9,0.8c-2.5,0-3.6,0.6-3.5,3.3
	c0.2,7.3,0.2,14.7,0.3,22c0,1.5,0.3,2.8,1.4,4.1c20.5,24.1,39.3,49.6,58.1,75c7.8,10.5,15.8,15.8,28.8,13.8
	c5.7-0.9,11.7-0.2,18.7-0.2c-24.1-31.9-47.6-62.6-71.9-93c6.9-3,13.5-4.8,19.3-8.6c23.3-15,32.3-38.8,28.3-65.5
	c-2.8-18.7-12.8-33.3-27.3-44.3c-9-6.9-19.7-11.5-31.8-11.5c-34.2,0.2-68.3,0.1-102.5,0.1c-2,0-4,0-5.9,0.5
	c-28.7,6.2-49.6,28.6-53,58.7c-3.5,30.7,14.2,58.7,43.1,68.6c4.4,1.5,4.7,2.6,1.9,6.2c-17.6,22.6-35.1,45.3-52.6,67.9
	C417,629.7,411.9,636.4,406.1,643.9z"/>
<path class="st3" d="M184.1,516.6c3.8-5.2,4.3-11.6,5.9-17.6c1.2-4.6,2.1-7.9,8-9.6s11.5-4.5,17.9-4.5c0.8,0,1.7-0.4,2.3-0.9
	c6.6-5.6,14.3-4.9,22.1-3.7c4.7,0.7,9.1,4.4,14.2,1.2c0.1-0.1,0.4,0,0.5,0.1c2.8,5.2,8.6,1.3,11.7,3.7c4.6,3.6,8.9,5.9,14.9,6.6
	c2.3,0.3,3.5,6.3,5.9,9.2c2.9,3.7,1.1,6.8-0.8,10.1c3.5,1.4,7.9,1,9.5,5.3c-12.6,0.1-25.2,0.2-37.8,0.2
	C233.5,516.8,208.8,516.7,184.1,516.6z"/>
<path class="st6" d="M368.1,769.1c0,15.5,0,31,0,46.5c0,7.3-2.9,10.8-10.2,11.5c-2.5,0.2-2.9,1.1-3,3.3
	c-0.5,10.7-0.6,10.5-11.5,10.7c-4.2,0.1-5.5-1.3-5.4-5.4c0.2-8.5,0-8.5-8.6-8.5c-0.5,0-1,0-1.5,0c-10.2,0-10.4,0-10.7,9.9
	c-0.1,3.1-1.3,4.2-4.2,3.9c-0.5,0-1,0-1.5,0c-10.5,0-10.6,0-11-10.6c-0.1-2.5-0.6-3.4-3.3-3.5c-6.5-0.3-10-3.9-10-10.6
	c-0.1-31.8-0.1-63.6,0-95.4c0-4.8,2.3-8.3,7-9.7c3.8-1.2,7.6-2.4,11.5-3c2.5-0.4,3.4-1.3,3.3-3.8c-0.1-4.6,2.1-8,6.6-9.4
	c2.3-0.7,2.5-2.2,2.5-4.2c-0.1-3.7,0-7.3,0-11c0-2,0.8-3.2,2.9-3.1c2,0.1,2.2,1.7,2.2,3.3c0,3.2,0.2,6.3,0,9.5
	c-0.3,3.5,0.6,5.1,4.6,4.9c3.5-0.2,6.3,0,5.5-4.9c-0.7-4.1,1.2-5.6,5.4-5.5c8,0.3,16,0,24,0.1c2.1,0,5.1-0.6,5.1,2.4
	c0,3.5-3.2,2.5-5.4,2.6c-7,0.1-14,0-21,0.1c-1.1,0-3-0.7-3.1,1.4c-0.1,1.7-0.8,3.7,1.6,4.7c4.7,1.8,6.5,5.5,6.2,10.3
	c-0.1,2.2,1,2.9,2.8,3.3c3.6,0.8,7.1,1.6,10.7,2.5c6.3,1.7,8.5,4.5,8.6,11C368.1,737.8,368.1,753.5,368.1,769.1z M328,786
	c10.5,0,21,0,31.5,0c2.2,0,3.7,0,3.7-3c-0.1-20.5-0.1-41,0-61.5c0-2.7-1.1-4.4-3.7-5.2c-20.7-6.3-41.4-7.7-62.3-0.5
	c-3.6,1.2-5.1,3.1-5,6.8c0.1,19.8,0.1,39.7,0,59.5c0,3,0.7,4,3.9,4C306.7,785.8,317.4,786,328,786z M327.5,791.1
	c-10.3,0-20.7,0.1-31-0.1c-3.3-0.1-4.8,0.6-4.6,4.3c0.3,6.5,0,13,0.1,19.5c0,5.5,1.7,7.2,7.1,7.2c19,0,38,0,57,0
	c5.3,0,6.6-1.5,6.7-7c0.1-6.5-0.2-13,0.1-19.5c0.1-3.4-0.8-4.6-4.4-4.5C348.2,791.3,337.9,791.1,327.5,791.1z M330.9,706.3
	c2,0.2,4,0.6,6,0.5c1.5-0.1,3.9,1.6,4.2-1.6c0.3-2.5-0.4-5.2-3.1-5.5c-6.9-0.8-13.9-0.9-20.8,0.1c-2.6,0.4-3.5,3-3.1,5.5
	c0.5,3,2.9,1.4,4.4,1.3C322.6,706.5,326.8,706,330.9,706.3z M343.2,831.7c0,2.1-0.6,4.4,3.2,4.4c3.5,0,3.6-1.7,3.5-4.3
	c-0.1-2.4,0.6-4.9-3.5-4.9C342.6,827,343.1,829.3,343.2,831.7z M312,831.4c-0.3-1.6,1.1-4.3-3-4.3c-3.8,0-3.3,2.3-3.3,4.6
	s-0.5,4.5,3.4,4.5C312.7,836,312,833.9,312,831.4z"/>
<path class="st6" d="M548.6,881c2.7,4.8,3.2,10.6,10.3,8.9c1.5-0.4,2.5,0.4,2.4,2.2c0,2-1.3,2-2.7,2c-12.3,0-24.7,0-37,0
	c-1.3,0-2.7,0.1-2.7-1.9c0-1.8,0.8-2.6,2.4-2.2c7,1.7,7.8-4,10.1-8.4c-1.4-0.9-2.9-0.5-4.3-0.5c-20.8,0-41.6,0-62.5,0
	c-6,0-6.7-0.8-6.7-6.5c0-26,0.1-52-0.1-77.9c0-4.6,1.7-6.2,6.2-6.2c50.8,0.1,101.6,0.1,152.4,0c4.2,0,6.1,1.7,6.1,5.9
	c0,26.3,0,52.6,0,78.9c0,4.6-2.3,5.9-6.6,5.9C593.8,880.9,571.6,881,548.6,881z M539.9,876.1c24.8,0,49.7-0.1,74.5,0.1
	c3.8,0,4.7-1.1,4.6-4.7c-0.2-24-0.2-48,0-72c0-3.9-1.2-4.6-4.8-4.6c-49.3,0.1-98.6,0.1-148,0c-3.9,0-5,1-5,4.9
	c0.2,23.7,0.2,47.3,0,71c0,4.7,1.5,5.4,5.6,5.4C491.2,876,515.6,876.1,539.9,876.1z"/>
<path class="st6" d="M813.5,642.2c2.9,3.6,4.3,7.3,0.3,10.6c-2.5,2.1-5.7,2.2-8.2-0.2c-3.4-3.3-2.5-6.8,0.8-10.7
	c-4.7,0.6-5.5-1.6-5.7-5.3c-2.3-43.2-4.7-86.4-7.2-129.6c-0.3-5.6,3-10.1,4.7-15.1c0.5-1.6,2.2-1.2,3.5-1.2c25.1,0,50.3,0,75.4,0
	c1.3,0,2.8-0.2,3.3,1.5c1.7,5.1,5,9.7,4.6,15.6c-1.6,27.1-3,54.2-4.5,81.3c-0.9,15.8-1.8,31.6-2.6,47.4c-0.2,3.6-0.4,6.7-6.2,5
	c3.2,4.2,5,8,0.8,11.4c-2.5,2.1-5.7,2.1-8.2-0.2c-3.4-3.2-2.6-6.8,0.7-10.5C847.7,642.2,830.8,642.2,813.5,642.2z M839.3,505.9
	c-13.2,0-26.3,0.1-39.5-0.1c-3,0-4,0.6-3.8,3.8c1,14.1,1.8,28.3,2.6,42.4c0.6,10.5,4.4,19.8,10.7,28c7.4,9.8,17.4,14.4,29.8,14.3
	c24.9-0.3,39.1-22.8,40.6-41.7c1.2-14.3,1.6-28.6,2.6-42.9c0.2-3.2-0.5-3.9-3.6-3.9C865.7,506,852.5,505.9,839.3,505.9z
	 M800.2,570.9c-0.2,0.3-0.4,0.5-0.4,0.8c1.1,21.5,2.3,42.9,3.4,64.4c0.1,2.8,1.7,3.5,3.9,3c2.1-0.5,5.4,2.1,6-2.7
	c1.2-8.9,4.6-17,11-23.6c8.9-9.2,21-9.2,30.1-0.2c6.3,6.4,9.7,14.3,10.9,23c0.7,5.2,4.5,3.1,7.2,3.5c3.2,0.5,2.8-1.9,2.9-3.8
	c0.9-15.3,1.8-30.6,2.7-45.9c0.4-6.5,0.7-13,1-20.7C862.7,604.8,816.7,607.1,800.2,570.9z M839.3,639.1c6.8,0,13.7,0,20.5,0
	c1.6,0,3.5,0.4,2.9-2.4c-1.6-8.1-4.2-15.8-10-21.9c-7.8-8.4-18.8-8.5-26.8-0.3c-5.7,5.9-8.6,13.3-10.1,21.3c-0.5,2.7,0.3,3.5,3,3.4
	C825.7,639,832.5,639.1,839.3,639.1z M796.6,503.1c27.9,0,55.2,0,82.5,0c0.7,0,1.7,0.3,2.1-0.8c0.8-2.3-3.7-9.2-6.2-9.2
	c-23.8,0-47.6,0-71.4,0c-1.4,0-3-0.3-3.6,1.7C799,497.4,797.8,500,796.6,503.1z M809.5,644.2c-2,0.4-3.5,1.6-3.4,3.9
	c0.2,2.3,1.7,3.7,3.8,3.6c2.2-0.1,3.6-1.6,3.5-3.9C813.4,645.6,811.9,644.4,809.5,644.2z M868.6,651.9c2.1-0.5,3.7-1.6,3.6-4
	c0-2.2-1.4-3.5-3.4-3.5c-2.2-0.1-3.8,1.1-3.8,3.6C864.9,650.4,866.5,651.3,868.6,651.9z"/>
<path class="st6" d="M746,841.7c-9.7,0-19.3,0-29,0c-5.4,0-6.5-1.3-6.8-6.8c-0.7-10.3,4.3-16.2,14.5-15.4c2.6,0.2,4.3-0.9,5.8-3.1
	c2.3-3.4,3.7-7,4.1-11.1c0.3-3-0.6-4.6-4-5.5c-26.2-6.9-43.6-31.5-42.4-59.3c1.2-26.2,21-48.6,47.1-53.5
	c30.9-5.8,60.3,13.7,67.3,44.6c6.7,29.7-11.7,60.3-41.2,68.2c-3.2,0.8-4,2.3-3.9,5.1c0.1,4.7,1.9,8.7,4.6,12.5
	c1.5,2.1,3.5,2.3,5.7,2.2c12.6-0.5,15,8.4,13.9,18c-0.4,3.5-3,4.3-6.2,4.3C765.7,841.6,755.9,841.7,746,841.7z M692.7,753
	c0.1,1.6-0.1,3.2,1.1,4.5v0.4c8,33.7,48.4,50.9,78.4,33.2c4.7-1.8,8.3-5.2,11.8-8.7c18.9-18.5,21.8-47.5,7.1-69
	c-15.1-22.2-43.1-30.2-67.5-19.3C701.1,704.1,687.3,730.4,692.7,753z M746.2,838.1c9.3,0,18.6,0,27.9,0c1.5,0,3.3,0.8,4.1-1.7
	c2.2-7.6-1.9-13.3-9.9-13.4c-14.5,0-28.9,0-43.4,0c-9,0-11.1,2.2-11.1,11.2c0,3.1,0.9,4,4,3.9C727.2,837.9,736.7,838.1,746.2,838.1z
	 M733.1,819c8.9,0,17.3,0,26,0c-3.2-5-5.4-9.8-5.1-15.4c0.1-2.1-0.7-2.3-2.7-2.2c-3.6,0.3-7.3,0.2-11,0c-1.8-0.1-2.4,0.3-2.3,2
	C738.5,809,736.2,813.8,733.1,819z"/>
<path class="st6" d="M184.1,516.6c24.7,0.1,49.4,0.2,74.2,0.2c12.6,0,25.2-0.1,37.8-0.2c1.8,0.1,3.6,0.2,5.5,0.2
	c4.9,0.2,7.6,2.9,8.8,7.3c0.4,1.8,0.5,3.6,0.5,5.4c0,26.3,0,52.6,0,78.9c0,9.5-3,12.7-12.5,12.6c-3.6-0.1-4.5,1.1-4.4,4.5
	c0.2,6.4-1.1,7.5-7.5,7.6c-3.2,0-6.3,0-9.5,0c-5.7-0.1-7.1-1.3-6.9-7.1c0.2-3.8-0.9-5-4.9-5c-19,0.2-38,0.2-56.9,0
	c-3.4,0-4.6,0.8-4.5,4.4c0.1,6.6-1.2,7.7-7.9,7.7c-3.2,0-6.3-0.1-9.5,0c-4.7,0.2-7-2-6.4-6.6c0.5-4.3-0.8-5.8-5.4-5.6
	c-8,0.4-11.5-3.3-11.5-11.4c0-27.1,0-54.3,0-81.4c0-8.2,3.3-11.4,11.5-11.5C177.8,516.8,180.9,516.7,184.1,516.6z M217,519.4
	c-15-0.1-30-0.7-44.9,0.3c-1.2,0-2.4,0.1-3.2,1.2c-3.2,1.8-3,4.9-3,7.9c0,26.3,0,52.7,0,79c0,9.2,1.8,11,11.2,11c40,0,80,0,120,0
	c1.2,0,2.3,0.1,3.5-0.1c4.7-0.5,7.4-3.1,7.4-7.8c0.1-28,0.1-56,0-84c0-3.5-1.4-6.6-5.5-7.1c-0.4-0.1-0.9-0.2-1.3-0.4
	c-14,0-28-0.1-42-0.1C245.1,519.4,231,519.4,217,519.4z M191.8,621.2c-2.2,0-4.3,0-6.5,0c-1.2,0-2.2,0.1-2.6,1.6
	c-1.6,5,0.5,7.9,5.8,8c2.3,0,4.7-0.2,7,0c4.4,0.4,5.6-1.5,5.8-5.8c0.1-4.8-2.7-3.8-5.4-3.9C194.4,621.2,193.1,621.2,191.8,621.2z
	 M282.3,621.2c-1.5,0-3,0.2-4.5,0c-4.5-0.7-5.2,1.4-5,5.3c0.1,3.3,1.4,4.5,4.5,4.3c2.8-0.1,5.6-0.2,8.4,0c4,0.3,5.4-1.2,5.6-5.4
	c0.2-4.9-2.5-4.4-5.5-4.3C284.6,621.2,283.4,621.2,282.3,621.2z"/>
<path class="st7" d="M539.8,270.3c-26.1,0-52.3,0-78.4,0c-10.4,0-13.3-3-13.3-13.4c0-19.3,0-38.6,0-57.9c0-8,3.5-11.6,11.5-11.6
	c53.6-0.1,107.2-0.1,160.8,0c8,0,11.6,3.6,11.6,11.6c0,19.8,0,39.6,0,59.4c0,8.3-3.4,11.9-11.8,11.9
	C593.4,270.4,566.6,270.3,539.8,270.3z M539.8,231.9c27,0,53.9-0.1,80.9,0.1c4.6,0,5.5-1.3,5.4-5.6c-0.3-8.6-0.1-17.3-0.1-26
	c0-6.5-0.7-7.2-7.2-7.2c-24.3,0-48.6,0-72.9,0c-28.3,0-56.6,0-84.9,0c-6.2,0-7,0.8-7,6.8c0,9,0.2,18-0.1,27c-0.1,4,1.1,5,5,4.9
	C485.9,231.8,512.9,231.9,539.8,231.9z M540.2,237.9c-27.2,0-54.3,0.1-81.5-0.1c-3.6,0-5.1,0.6-4.8,4.6c0.4,4.8,0.1,9.6,0.1,14.5
	c0,6.9,0.7,7.7,7.8,7.6c4.3-0.1,9.5,1.7,12.6-0.9c3-2.4,2-7.8,2.7-11.8c0.6-3.6,2.1-5,5.9-5c38,0.1,75.9,0.1,113.9,0
	c3.5,0,5.1,1.1,5.8,4.6c0.9,4.3-0.6,10.3,3.2,12.5c3.5,1.9,8.8,0.6,13.2,0.6c0.2,0,0.3,0,0.5,0c4.3,0.2,6.5-1.6,6.3-6.2
	c-0.2-5.1-0.3-10.3,0-15.5c0.2-3.9-0.9-5-4.9-5C594.2,238,567.2,237.9,540.2,237.9z M539.5,264.6c18.1,0,36.3,0,54.4,0
	c1.5,0,4.3,0.8,4.4-1c0.2-3.2-0.4-6.7-1.5-9.7c-0.8-2.2-3.6-1.1-5.4-1.1c-33.8-0.1-67.5-0.1-101.3-0.1c-7.1,0-6.8,0.1-8.1,7.2
	c-0.8,4.5,1,4.9,4.6,4.8C504.2,264.5,521.8,264.6,539.5,264.6z"/>
<path class="st1" d="M268,334.5c0-19.6,0-39.3,0-59c0-8.5,3-11.5,11.3-11.5c21.8,0,43.6,0,65.5,0c7.6,0,11,3.3,11,10.9
	c0.1,40.1,0,80.3,0,120.4c0,6.4-2.7,9.9-8.8,10.7c-2.8,0.4-4.2,1.5-5,4c-0.9,3.3-3.2,4.4-6.5,4c-2-0.2-4-0.2-6,0
	c-4.1,0.4-7.2-0.4-8.4-4.9c-0.6-2.3-2.3-3-4.6-2.8c-2.5,0.1-5,0.2-7.5,0c-3.8-0.4-6.5,0.5-7.5,4.6c-0.6,2.4-2.5,3.3-5,3.2
	c-2.5-0.1-5-0.2-7.5,0c-4,0.4-6.8-0.7-7.9-4.9c-0.5-1.9-1.8-2.7-4-3c-6.9-1.1-9.3-4-9.3-11.2C268,374.8,268,354.7,268,334.5z
	 M351,358.2c0-12.2-0.1-24.3,0.1-36.5c0.1-3.7-0.9-4.8-4.6-4.7c-23,0.2-46,0.2-69,0c-3.6,0-4.9,0.7-4.9,4.6
	c0.2,24.1,0.1,48.3,0.1,72.5c0,6.2,1.3,7.2,7.3,7.2c21.1-0.1,42.3-0.1,63.4,0c6,0,7.5-1.1,7.5-7.1C351,382.2,351,370.2,351,358.2z
	 M312,312.2c11.7,0,23.3-0.1,35,0c2.9,0,4.1-0.6,4.1-3.8c-0.2-11.2-0.1-22.3,0-33.5c0-4.4-1.9-6.2-6.4-6.2
	c-21.8,0.1-43.6,0.1-65.5,0c-4.7,0-6.6,1.8-6.5,6.5c0.1,10.8,0.2,21.7,0,32.5c-0.1,4,1.4,4.6,4.9,4.6C289,312,300.5,312.2,312,312.2
	z M291.8,409.4c1.7-1.2,5.4,1.3,5.5-1.9c0.1-1.9-3.6-1-5.6-0.9c-1.9,0-5.5-1.3-5.5,1C286.2,410.5,289.8,408.4,291.8,409.4z
	 M332.1,406.4c-1.8,1-5.7-1.4-5.7,1.4s3.8,1.2,5.9,1.3c1.8,0.1,5.2,1.4,5.2-1.6C337.4,405.6,334,406.9,332.1,406.4z"/>
<path class="st8" d="M718.9,348.5c0-18.8,0-37.6,0-56.5c0-6.5,2.1-8.8,8.6-8.8c30.5-0.1,61-0.1,91.5,0c6.5,0,8.8,2.4,8.8,8.8
	c0,37.8,0,75.6,0,113.4c0,6.5-2.2,8.6-8.8,8.6c-30.5,0-61,0-91.5,0c-6.7,0-8.7-2-8.7-8.6C718.9,386.5,718.9,367.5,718.9,348.5z
	 M773.2,308.7c-15.5,0-31,0.1-46.5-0.1c-3.6,0-4.8,0.7-4.8,4.6c0.2,30.5,0.2,60.9,0,91.4c0,4.8,1.9,6.4,6.5,6.4
	c29.8-0.1,59.6-0.1,89.4-0.1c5.8,0,6.5-0.8,6.5-6.7c0-30.3-0.1-60.6,0.1-90.9c0-3.9-1.3-4.7-4.9-4.7
	C804.2,308.8,788.7,308.8,773.2,308.7z M773,305.3c13.2,0,26.3,0,39.5,0c12.3,0,12.2,0,12.1-12.4c0-4.4-1.4-6.2-6.1-6.2
	c-30.2,0.1-60.3,0.1-90.5,0c-4.2,0-6.3,1.4-6,5.8c0.2,2.8,0.3,5.7,0,8.5c-0.4,3.6,1.1,4.5,4.5,4.4C742,305.2,757.5,305.4,773,305.3z
	"/>
<path class="st1" d="M523.7,291.1c0-1.8,0-3.6,0-5.5c0-1.7,0.7-3,2.5-3.2c2-0.2,3.3,1.1,3.4,2.8c0.2,3.8,0.2,7.6,0.1,11.4
	c0,1.9-1.2,3.2-3.1,3.2c-2,0-2.8-1.5-2.9-3.4C523.7,294.7,523.7,292.9,523.7,291.1z"/>
<path class="st1" d="M556.3,291.7c0,1.5,0,3,0,4.5c0,2-0.8,3.8-3,3.7c-2.2-0.1-3-1.8-3-3.9c0-3.3,0-6.6,0-9.9c0-2.1,1-3.7,3.2-3.7
	s2.9,1.8,2.9,3.9C556.3,288.1,556.3,289.9,556.3,291.7z"/>
<path class="st7" d="M483.6,285.6c-2,3.8-4.3,7.8-7.6,11.1c-0.7,0.7-1.9,0.5-2.8-0.1c-1.1-0.7-1.7-1.9-1.2-3c1.7-3.9,4.1-7.5,7-10.7
	c0.8-0.9,2-0.9,3.2-0.2C483,283.4,483.5,284.2,483.6,285.6z"/>
<path class="st7" d="M599.3,282.3c1.1,0,2,0.5,2.6,1.4c1.9,2.9,3.9,5.7,5.7,8.6c0.9,1.5,0.8,3.2-1,4.3c-1.5,0.9-2.9,0.4-3.8-1
	c-2-3-4.1-6-5.9-9.1C595.5,284.1,597.2,282.9,599.3,282.3z"/>
<path class="st7" d="M584.3,293.3c0,1.8-0.4,2.9-1.5,3.4c-1.3,0.6-2.7,0.4-3.5-0.9c-2.1-3-4.1-6-6-9.1c-0.7-1.2-0.7-2.6,0.5-3.6
	c1-0.8,2.2-1.3,3.2-0.4C580.3,285.9,582.3,289.9,584.3,293.3z"/>
<path class="st7" d="M507.1,286c-1.9,3.5-4.1,7.4-7.3,10.6c-0.8,0.8-2.2,0.6-3.2-0.3s-1.4-2.1-0.8-3.1c2-3.4,4.2-6.7,6.5-10
	c0.7-1,1.9-1.2,3.2-0.6C506.8,283.2,507.2,284.2,507.1,286z"/>
<path class="st1" d="M462.8,284.5c0.2,2.6-6.8,9.9-8.9,9.6c-2.5-0.3-3.6-2.1-2.4-4.2c1.8-3,4.4-5.4,7.4-7.1
	C461,281.5,462.2,283.1,462.8,284.5z"/>
<path class="st1" d="M620,282.4c2.3,0,9.1,6.7,8.9,8.8c-0.3,2.8-2.2,4-4.5,2.4c-2.5-1.8-4.7-4.2-6.5-6.6
	C616.1,284.4,617.7,283,620,282.4z"/>
<path class="st9" d="M406.1,643.9c5.8-7.5,10.9-14.2,16-20.8c17.5-22.7,35-45.4,52.6-67.9c2.8-3.6,2.5-4.7-1.9-6.2
	c-28.9-9.9-46.6-37.9-43.1-68.6c3.5-30.2,24.4-52.5,53-58.7c1.9-0.4,4-0.5,5.9-0.5c34.1,0,68.3,0.1,102.5-0.1
	c12.2-0.1,22.8,4.6,31.8,11.5c14.5,11,24.5,25.7,27.3,44.3c4,26.7-5.1,50.5-28.3,65.5c-5.8,3.8-12.4,5.5-19.3,8.6
	c24.4,30.4,47.8,61.1,71.9,93c-7,0-12.9-0.7-18.7,0.2c-13,2-21.1-3.3-28.8-13.8c-18.8-25.4-37.6-50.9-58.1-75
	c-1.1-1.3-1.4-2.5-1.4-4.1c-0.1-7.3-0.1-14.7-0.3-22c-0.1-2.7,1-3.4,3.5-3.3c6.3,0,12.6,0,18.9-0.8c29.7-3.7,42-36.8,26.7-60.1
	c-6.9-10.6-17.9-14.9-30.5-15.1c-8.5-0.1-17,0.2-25.5-0.1c-4-0.2-4.5,1.4-4.5,4.8c0.1,54.8,0.1,109.6,0.2,164.4
	c0,15.7-0.1,31.3,0.1,47c0,3.4-0.8,4.7-4.4,4.5c-7.2-0.3-14.3-0.3-21.5-0.1c-3.7,0.1-4.8-1-4.8-4.7c0.2-16.8,0.1-33.7,0.1-50.5
	c0-53.3,0-106.6,0.1-159.9c0-4.3-0.8-5.8-5.4-5.6c-11.3,0.7-22.7-1-33.9,0.9c-13.7,2.2-26.4,16-27.7,29.8
	c-1.4,14.2,1.9,26.7,13.4,36.2c7.7,6.3,16.6,8.9,26.3,9.3c3.8,0.2,7.7,0.2,11.5,0c2.5-0.1,3.6,0.6,3.5,3.3c-0.2,7-0.1,14,0,21
	c0,2-0.7,3.4-2,4.9c-22.6,27.6-43.4,56.5-65.1,84.7c-2.2,2.9-4.4,4.3-8.2,4.2C427.8,643.7,417.5,643.9,406.1,643.9z"/>
<path class="st3" d="M328,786c-10.7,0-21.3-0.1-32,0.1c-3.1,0.1-3.9-1-3.9-4c0.1-19.8,0.1-39.7,0-59.5c0-3.7,1.5-5.6,5-6.8
	c20.9-7.2,41.6-5.8,62.3,0.5c2.6,0.8,3.7,2.5,3.7,5.2c0,20.5-0.1,41,0,61.5c0,3-1.5,3-3.7,3C349,785.9,338.5,786,328,786z
	 M337.3,740.6c-0.9-5.5-4.4-11.2-8-16.7c-1.2-1.8-3.1-1.2-4.1,0.4c-3.1,4.9-6.3,9.8-7.5,15.6c-1.1,5.5,3.5,11,9.1,11.4
	C332.6,751.8,337.2,747.6,337.3,740.6z"/>
<path class="st3" d="M327.5,791.1c10.3,0,20.7,0.2,31-0.1c3.6-0.1,4.5,1.1,4.4,4.5c-0.2,6.5,0,13-0.1,19.5c0,5.5-1.4,7-6.7,7
	c-19,0-38,0-57,0c-5.4,0-7.1-1.8-7.1-7.2c0-6.5,0.2-13-0.1-19.5c-0.2-3.7,1.3-4.4,4.6-4.3C306.9,791.2,317.2,791.1,327.5,791.1z
	 M317.8,806.6c0,5.7,3.9,9.5,9.3,9.4c5.2-0.1,8.9-4,9-9.3c0.1-5.4-4.1-9.7-9.3-9.5C321.7,797.3,317.8,801.4,317.8,806.6z
	 M306.2,809.1c2,0,4.3,0.3,4.5-2.2c0.2-2.8-2-2.9-4.1-3c-2,0-4,0.2-4,2.6C302.4,809,304.4,809.2,306.2,809.1z M347.2,809.1
	c1.8,0,3.9,0.2,4-2.4c0-2.5-1.9-2.8-3.8-2.8c-2,0-4.3,0-4.2,2.8C343.3,809.3,345.4,809.1,347.2,809.1z"/>
<path class="st3" d="M330.9,706.3c-4.2-0.3-8.3,0.2-12.4,0.3c-1.5,0.1-3.9,1.7-4.4-1.3c-0.4-2.5,0.4-5.1,3.1-5.5
	c6.9-0.9,13.9-0.8,20.8-0.1c2.7,0.3,3.4,3,3.1,5.5c-0.3,3.2-2.8,1.5-4.2,1.6C334.9,706.9,332.9,706.5,330.9,706.3z"/>
<path class="st3" d="M343.2,831.7c0-2.4-0.6-4.7,3.2-4.7c4.1-0.1,3.4,2.4,3.5,4.9c0.1,2.6,0,4.3-3.5,4.3
	C342.5,836.1,343.1,833.8,343.2,831.7z"/>
<path class="st3" d="M312,831.4c0,2.5,0.7,4.6-3,4.7c-3.8,0.1-3.4-2.1-3.4-4.5c0-2.3-0.5-4.6,3.3-4.6
	C313.2,827,311.7,829.8,312,831.4z"/>
<path class="st3" d="M539.9,876.1c-24.3,0-48.7-0.1-73,0.1c-4.2,0-5.7-0.7-5.6-5.4c0.3-23.7,0.2-47.3,0-71c0-4,1.1-4.9,5-4.9
	c49.3,0.1,98.6,0.1,148,0c3.6,0,4.8,0.7,4.8,4.6c-0.2,24-0.2,48,0,72c0,3.7-0.8,4.8-4.6,4.7C589.6,876,564.7,876.1,539.9,876.1z"/>
<path class="st3" d="M839.3,505.9c13.2,0,26.3,0.1,39.5-0.1c3.1,0,3.8,0.6,3.6,3.9c-1,14.3-1.5,28.6-2.6,42.9
	c-1.6,19-15.7,41.4-40.6,41.7c-12.4,0.2-22.4-4.5-29.8-14.3c-6.3-8.2-10.1-17.6-10.7-28c-0.8-14.1-1.6-28.3-2.6-42.4
	c-0.2-3.2,0.8-3.9,3.8-3.8C813,506,826.2,505.9,839.3,505.9z M872.4,549.9c0.5-17.9-14.4-33.5-32.3-33.9c-18-0.4-33.7,14-34.2,31.4
	c-0.5,19,13.8,34.7,32,35.1C856.7,583,871.9,568.5,872.4,549.9z M880,513.3c-0.2-2.1-1.4-3.4-3.8-3.4c-2.5,0-3.6,1.5-3.6,3.8
	c0,2.4,1.5,3.7,3.8,3.7C878.7,517.3,880,516,880,513.3z M863.5,509.9c-2.4,0.1-3.7,1.3-3.7,3.7c0,2.5,1.3,3.8,3.6,3.8
	s3.7-1.2,3.7-3.7C867.1,511.3,866,510,863.5,509.9z"/>
<path class="st3" d="M800.2,570.9c16.5,36.2,62.4,33.9,78.7-2.2c-0.4,7.7-0.7,14.2-1,20.7c-0.9,15.3-1.8,30.6-2.7,45.9
	c-0.1,1.9,0.3,4.3-2.9,3.8c-2.7-0.4-6.5,1.7-7.2-3.5c-1.2-8.8-4.6-16.7-10.9-23c-9-9-21.2-9-30.1,0.2c-6.4,6.6-9.7,14.7-11,23.6
	c-0.7,4.8-3.9,2.2-6,2.7c-2.2,0.5-3.7-0.1-3.9-3c-1.1-21.5-2.2-42.9-3.4-64.4C799.8,571.4,800.1,571.2,800.2,570.9z"/>
<path class="st3" d="M839.3,639.1c-6.8,0-13.7-0.1-20.5,0c-2.7,0.1-3.5-0.8-3-3.4c1.5-8,4.3-15.3,10.1-21.3c8-8.2,19-8.1,26.8,0.3
	c5.8,6.2,8.3,13.8,10,21.9c0.6,2.9-1.3,2.4-2.9,2.4C853,639.1,846.1,639.1,839.3,639.1z M840.6,624.3c0-2.6,0-4.6,0-6.6
	c0-0.9-0.5-1.6-1.5-1.6c-1.1,0-1.2,1-1.2,1.8c0,2-0.3,4,0,5.9c0.5,2.5-1.7,7.1,1.3,7.1C842.2,630.9,839.9,626.1,840.6,624.3z"/>
<path class="st3" d="M796.6,503.1c1.2-3.1,2.4-5.7,3.2-8.3c0.7-2,2.2-1.7,3.6-1.7c23.8,0,47.6,0,71.4,0c2.5,0,7.1,6.9,6.2,9.2
	c-0.4,1.1-1.3,0.8-2.1,0.8C851.8,503.1,824.5,503.1,796.6,503.1z"/>
<path class="st3" d="M809.5,644.2c2.4,0.2,3.9,1.3,4,3.6s-1.4,3.8-3.5,3.9c-2.2,0.1-3.7-1.3-3.8-3.6
	C806,645.8,807.5,644.7,809.5,644.2z"/>
<path class="st3" d="M868.6,651.9c-2.1-0.5-3.7-1.5-3.6-4c0.1-2.5,1.6-3.7,3.8-3.6c2,0.1,3.3,1.3,3.4,3.5
	C872.2,650.3,870.7,651.4,868.6,651.9z"/>
<path class="st3" d="M693.8,758v-0.4c0-1.6,0.6-3.4-1.1-4.5c-5.4-22.7,8.4-49,30.9-59c24.4-10.8,52.4-2.8,67.5,19.3
	c14.7,21.5,11.8,50.5-7.1,69c-3.5,3.4-7.1,6.9-11.8,8.7c-2.2-1.7-1.1-3.5-0.2-5.3c0.8-1.4,2.1-2.6,1.9-4.5c7.7-0.9,12-6.1,14.6-12.6
	s0.2-12-4.5-16.8c-4.8-4.8-10.6-7.5-17.1-8.6c-2.7-0.4-4-1.1-4.5-3.9c-0.6-3.5-2.4-6.7-5.5-8.6c-3-1.9-3.2-4.2-2.2-7.2
	c1.4-4.6,4.6-8,7.4-11.7c3.9-5,4.1-9,0.8-12.5c-7.9-8.4-23.7-5.5-27.9,5.1c-2.7,6.8-2.2,13.7-0.3,20.6c-1.2,4.7-4.6,7-8.7,9.3
	c-4.7,2.7-12.4,1.4-13.2,9.6c-0.1,1.2-1.9,1.2-3,1c-1.8-0.3-1.2-1.5-1-2.7c0.3-1.9-0.7-3.5-1.3-5.2c1.8-10.8,7.3-19.1,16.1-25.5
	c1-0.8,2.7-1.4,1.8-3c-0.6-1.2-1.9-0.8-3.1-0.2c-9.6,4.5-19.4,22-18.2,32.5c-0.2,1.4-0.6,2.5-2,3.1c-4.5,1.8-4.7,5.2-3.4,9.2
	c0,1.3,0,2.7,0,4C697,757.3,695.4,757.6,693.8,758z M788.9,740.2c-0.2-10.1-7.8-24.4-15.9-29.8c-1.1-0.8-2.3-1.8-3.4-0.4
	c-1.2,1.6,0.4,2.4,1.3,3.2c8.6,7.1,13.3,16.3,14.5,27.3c0.1,1.3-0.1,3.5,2.2,3C789.3,743.2,789,741.5,788.9,740.2z"/>
<path class="st3" d="M693.8,758c1.6-0.3,3.2-0.7,4.8-1c2.8,13.6,11.1,19.4,22.4,15.7c4.8-1.6,9.5-3.8,12.6-7.7c3-3.9,6.1-6,11.1-4
	c1.5,0.6,3.6,0.1,5.4-0.3c6.8-1.6,9.1-0.7,12.4,5.7c1.4,2.8,2.5,5.8,3.8,8.7c1.5,3.3,3.7,6,7.6,6.5c0.2,1.8-1.1,3-1.9,4.5
	c-0.9,1.8-2,3.6,0.2,5.3C742.2,808.9,701.8,791.7,693.8,758z M745.3,786.9c6.9,0.1,11.9-1.1,16.7-3c1.1-0.4,2.3-1,1.9-2.5
	c-0.4-1.3-1.6-1.5-2.9-1c-10.8,4.2-21.4,3.6-31.9-1.1c-1.1-0.5-2.4-0.9-3.1,0.3c-1,1.7,0.6,2.3,1.7,2.9
	C733.7,785.8,740.3,786.7,745.3,786.9z"/>
<path class="st3" d="M746.2,838.1c-9.5,0-19-0.1-28.4,0.1c-3.1,0.1-3.9-0.9-4-3.9c0-8.9,2-11.2,11.1-11.2c14.5,0,28.9,0,43.4,0
	c8,0,12.1,5.8,9.9,13.4c-0.7,2.5-2.6,1.7-4.1,1.7C764.8,838.1,755.5,838.1,746.2,838.1z"/>
<path class="st3" d="M733.1,819c3.1-5.2,5.4-10,5-15.5c-0.1-1.8,0.5-2.2,2.3-2c3.6,0.2,7.3,0.3,11,0c1.9-0.1,2.8,0.1,2.7,2.2
	c-0.3,5.5,1.9,10.4,5.1,15.4C750.3,819,742,819,733.1,819z"/>
<path class="st3" d="M692.7,753c1.8,1.2,1.1,3,1.1,4.5C692.7,756.3,692.8,754.6,692.7,753z"/>
<path class="st3" d="M259.1,519.4c14,0,28,0.1,42,0.1c0.4,0.1,0.9,0.2,1.3,0.4c4.2,0.5,5.5,3.6,5.5,7.1c0.1,28,0.1,56,0,84
	c0,4.7-2.7,7.3-7.4,7.8c-1.1,0.1-2.3,0.1-3.5,0.1c-40,0-80,0-120,0c-9.4,0-11.2-1.8-11.2-11c0-26.3,0-52.7,0-79c0-3-0.2-6.1,3-7.9
	c1.3,0.1,2.5,0.1,3.2-1.2c15-1,30-0.4,44.9-0.3c3.5,4,8.3,2.3,12.5,2.5c6.6,0.3,7.3,1.2,4.5,6.7c-19,0.1-38,0.2-56.9,0.1
	c-3.1,0-4.4,0.6-4.4,4.1c0.1,24.3,0.1,48.6,0,72.9c0,3.3,1,4.2,4.3,4.2c30.8-0.1,61.6-0.1,92.4,0c2.9,0,4.2-0.6,4.2-3.8
	c-0.1-24.5-0.1-49,0-73.4c0-3-1-4-4-4c-6.8,0.2-13.6,0-20.5-0.1c-2.5-5-2.5-5,3.3-5.6C255.1,522.7,257.6,522,259.1,519.4z
	 M302.3,598.2c0.1-6.5-5.1-11.9-11.5-12.1c-6.4-0.2-11.9,5.2-12,11.6c-0.1,6.6,5,11.9,11.5,12.1C296.6,610,302.2,604.6,302.3,598.2z
	 M302.3,567.8c0-6.5-5.3-11.8-11.7-11.8c-6.5,0-11.8,5.2-11.8,11.7c0,6.6,5.2,11.8,11.7,11.8C296.9,579.5,302.3,574.2,302.3,567.8z
	 M290.9,528.8c-12.7,0-12.7,0-11.8,10.1c0,0.2,0,0.3,0,0.5c-0.1,1.9,0.8,2.7,2.7,2.7c5.8,0,11.7,0,17.5,0c2,0,2.4-1.1,2.6-2.8
	c1.1-10,0.8-10.4-9-10.4C292.3,528.8,291.6,528.8,290.9,528.8z"/>
<path class="st3" d="M234,528.6c2.8-5.5,2.1-6.4-4.5-6.7c-4.3-0.2-9,1.5-12.5-2.5c14,0,28,0,42,0c-1.5,2.6-4,3.3-6.7,3.6
	c-5.8,0.6-5.8,0.6-3.3,5.6C244.1,528.6,239.1,528.6,234,528.6z"/>
<path class="st3" d="M191.8,621.2c1.3,0,2.6,0,4,0c2.7,0,5.6-0.9,5.4,3.9c-0.1,4.3-1.4,6.2-5.8,5.8c-2.3-0.2-4.6,0-7,0
	c-5.3,0-7.3-3-5.8-8c0.5-1.5,1.4-1.6,2.6-1.6C187.5,621.2,189.6,621.2,191.8,621.2z"/>
<path class="st3" d="M282.3,621.2c1.2,0,2.3,0,3.5,0c3-0.1,5.8-0.7,5.5,4.3c-0.2,4.2-1.5,5.7-5.6,5.4c-2.8-0.2-5.6-0.1-8.4,0
	c-3.1,0.1-4.3-1.1-4.5-4.3c-0.2-3.9,0.5-6,5-5.3C279.3,621.4,280.8,621.2,282.3,621.2z"/>
<path class="st3" d="M172.1,519.7c-0.7,1.3-2,1.3-3.2,1.2C169.6,519.7,170.9,519.7,172.1,519.7z"/>
<path class="st10" d="M302.4,519.9c-0.4-0.1-0.9-0.2-1.3-0.4C301.5,519.6,302,519.7,302.4,519.9z"/>
<path class="st4" d="M539.8,231.9c-27,0-53.9-0.1-80.9,0.1c-3.9,0-5.1-0.9-5-4.9c0.3-9,0.1-18,0.1-27c0-6,0.8-6.8,7-6.8
	c28.3,0,56.6,0,84.9,0c24.3,0,48.6,0,72.9,0c6.5,0,7.2,0.7,7.2,7.2c0,8.6-0.2,17.3,0.1,26c0.2,4.3-0.8,5.6-5.4,5.6
	C593.8,231.7,566.8,231.9,539.8,231.9z"/>
<path class="st4" d="M540.2,237.9c27,0,54,0.1,81-0.1c4,0,5.2,1.1,4.9,5c-0.3,5.1-0.3,10.3,0,15.5c0.2,4.6-1.9,6.4-6.3,6.2
	c-0.2,0-0.3,0-0.5,0c-4.5-0.1-9.8,1.3-13.2-0.6c-3.8-2.1-2.3-8.2-3.2-12.5c-0.7-3.4-2.3-4.6-5.8-4.6c-38,0.1-76,0.1-113.9,0
	c-3.8,0-5.4,1.4-5.9,5c-0.7,4.1,0.3,9.4-2.7,11.8c-3.1,2.6-8.3,0.8-12.6,0.9c-7.1,0.1-7.8-0.7-7.8-7.6c0-4.8,0.3-9.7-0.1-14.5
	c-0.3-4,1.2-4.6,4.8-4.6C485.9,238,513,237.9,540.2,237.9z"/>
<path class="st4" d="M539.5,264.6c-17.6,0-35.3-0.1-52.9,0.1c-3.7,0-5.4-0.4-4.6-4.8c1.3-7.1,1-7.2,8.1-7.2c33.8,0,67.6,0,101.3,0.1
	c1.9,0,4.6-1.1,5.4,1.1c1.1,3,1.7,6.5,1.5,9.7c-0.1,1.9-2.8,1-4.4,1C575.7,264.6,557.6,264.6,539.5,264.6z"/>
<path class="st4" d="M351,358.2c0,12,0,24,0,36c0,6-1.5,7.1-7.5,7.1c-21.1-0.1-42.3-0.1-63.4,0c-6,0-7.3-1-7.3-7.2
	c0-24.1,0.1-48.3-0.1-72.5c0-3.9,1.3-4.6,4.9-4.6c23,0.1,46,0.2,69,0c3.8,0,4.7,1,4.6,4.7C350.9,333.9,351,346,351,358.2z
	 M290,337.9L290,337.9c0-3.8,0.1-7.6,0-11.5c-0.2-3.8-2.7-5-6.1-5s-5.9,1.1-5.9,5.1c0,7.6,0,15.3,0,23c0,3.9,2.4,5.2,5.8,5.2
	c3.7,0.1,6.2-1.2,6.3-5.3C290.1,345.5,290,341.7,290,337.9z"/>
<path class="st4" d="M312,312.2c-11.5,0-23-0.1-34.5,0.1c-3.5,0.1-5-0.6-4.9-4.6c0.3-10.8,0.2-21.6,0-32.5c-0.1-4.7,1.8-6.5,6.5-6.5
	c21.8,0.1,43.6,0.1,65.5,0c4.5,0,6.4,1.8,6.4,6.2c-0.1,11.2-0.1,22.3,0,33.5c0,3.2-1.1,3.9-4.1,3.8
	C335.4,312.1,323.7,312.2,312,312.2z M278,293.8c0,2.8,0,5.6,0,8.5c-0.1,4,2.1,5.6,5.9,5.7c3.9,0,6-1.8,6-5.7c0.1-5.5,0.1-11,0-16.4
	c-0.1-3.8-2.1-5.7-6-5.7c-3.8,0-6,1.6-5.9,5.7C278,288.5,278,291.1,278,293.8z"/>
<path class="st4" d="M291.8,409.4c-2-1-5.6,1.1-5.6-1.8c0-2.3,3.6-1,5.5-1c2,0,5.7-1,5.6,0.9C297.2,410.7,293.5,408.1,291.8,409.4z"
	/>
<path class="st4" d="M332.1,406.4c2,0.6,5.4-0.8,5.3,1.1c0,3-3.4,1.6-5.2,1.6c-2-0.1-5.9,1.5-5.9-1.3
	C326.4,405,330.2,407.4,332.1,406.4z"/>
<path class="st4" d="M773.2,308.7c15.5,0,31,0.1,46.5-0.1c3.6,0,4.9,0.9,4.9,4.7c-0.2,30.3-0.1,60.6-0.1,90.9c0,5.9-0.8,6.7-6.5,6.7
	c-29.8,0-59.6-0.1-89.4,0.1c-4.7,0-6.6-1.5-6.5-6.4c0.1-30.5,0.1-60.9,0-91.4c0-3.9,1.2-4.7,4.8-4.6
	C742.3,308.8,757.7,308.7,773.2,308.7z M772.6,400.2c22.3,0.4,41.1-17.6,41.3-39.4c0.3-22.4-17.8-41.1-39.9-41.6
	c-21.6-0.4-40.8,17.6-41.1,38.6C732.5,381.6,749.5,399.8,772.6,400.2z"/>
<path class="st4" d="M773,305.3c-15.5,0-31-0.1-46.5,0.1c-3.4,0-4.9-0.8-4.5-4.4c0.3-2.8,0.2-5.7,0-8.5c-0.3-4.4,1.8-5.8,6-5.8
	c30.2,0.1,60.3,0.1,90.5,0c4.7,0,6,1.8,6.1,6.2c0.1,12.4,0.2,12.4-12.1,12.4C799.3,305.3,786.1,305.3,773,305.3z M747.9,301
	c3.2,0,6.3,0.1,9.5,0c4.2-0.1,6-2.2,5.6-6.2c-0.1-1,0-2.1-1.4-2.2c-1.3-0.1-1.7,0.8-1.6,1.9c0.2,2.3-0.7,3.4-3.1,3.3
	c-6-0.1-12,0-17.9,0c-1.3,0-2.7,0-2.9-1.9c-0.1-1.3,0.7-3.6-1.8-3.2c-2.4,0.4-1.3,2.7-1.3,4.1c0.1,2.8,1.8,4.1,4.6,4.1
	C741,301,744.4,301,747.9,301z M798.1,299.4c0-1.1-0.3-2-1.6-2.1s-2.3,0.3-2.3,1.9c0,1.2,0.7,1.7,1.9,1.8
	C797.2,301,798,300.7,798.1,299.4z M803.7,297.3c-1.2,0-1.8,0.8-1.6,2.1c0.1,1.2,1,1.5,2.1,1.5s1.8-0.4,1.9-1.6
	C806,297.9,805.3,297.3,803.7,297.3z M811.8,301c1.3,0.1,2.2-0.4,2.1-1.9c-0.1-1.2-0.7-1.7-1.9-1.7c-1.4,0-2.2,0.5-2.1,2
	C810,300.5,810.7,301,811.8,301z"/>
<path class="st6" d="M337.3,740.6c-0.1,7-4.7,11.2-10.5,10.7c-5.7-0.5-10.3-5.9-9.1-11.4c1.2-5.8,4.4-10.7,7.5-15.6
	c1-1.6,3-2.2,4.1-0.4C332.9,729.5,336.4,735.1,337.3,740.6z M327.3,730.8c-1.4,3.2-2.8,6-3.9,8.9c-0.9,2.2-0.2,4.4,1.8,5.7
	c1.6,1.1,3.5,1.1,5.1-0.1c1.8-1.3,2.3-3.3,1.6-5.3C330.9,736.8,329.9,733.7,327.3,730.8z"/>
<path class="st6" d="M317.8,806.6c0-5.2,3.9-9.3,8.9-9.4c5.2-0.1,9.4,4.1,9.3,9.5c-0.1,5.3-3.8,9.2-9,9.3
	C321.7,816.2,317.8,812.3,317.8,806.6z M327.2,802c-2.6,0.2-4,1.5-4.2,4.1s1.1,4.3,3.5,4.6c2.5,0.3,4.3-1,4.4-3.6
	C331.1,804.4,330,802.5,327.2,802z"/>
<path class="st6" d="M306.2,809.1c-1.8,0.1-3.8-0.1-3.7-2.6c0.1-2.4,2.1-2.6,4-2.6c2.1,0,4.3,0.2,4.1,3
	C310.4,809.4,308.2,809.1,306.2,809.1z"/>
<path class="st6" d="M347.2,809.1c-1.8,0-4,0.2-4.1-2.4c-0.1-2.8,2.2-2.8,4.2-2.8s3.8,0.3,3.8,2.8
	C351.2,809.4,349.1,809.1,347.2,809.1z"/>
<path class="st6" d="M872.4,549.9c-0.5,18.6-15.7,33.1-34.5,32.7c-18.2-0.4-32.5-16.1-32-35.1c0.5-17.4,16.2-31.8,34.2-31.4
	C858,516.4,872.9,532,872.4,549.9z M839.2,544.2c-1.8,0-3.7,0.2-5.5,0c-4.1-0.6-5,1.2-4.9,5c0.1,3.5,0,6.1,4.8,5.5
	c3.8-0.4,7.6-0.3,11.4,0c3.6,0.3,4.3-1.1,4.5-4.5c0.3-4.7-1-6.9-6-6C842.2,544.4,840.7,544.1,839.2,544.2z M839,541.5
	c2.5,0,5,0,7.5,0c1.1,0,2.2,0.2,2.9-1.2c2.1-4.8-0.5-9.1-5.5-9.1c-3.2,0-6.3,0.3-9.5-0.1c-4.2-0.5-5.8,0.7-5.6,5.3
	c0.2,4,1,5.8,5.2,5.2C835.6,541.3,837.3,541.5,839,541.5z M839.2,557c-2.5,0-5,0.1-7.5,0c-4.3-0.2-2.7,3-2.7,4.8
	c0.1,2-2,5.4,2.7,5.3c4.2-0.1,8.3-0.3,12.5,0.1c4.2,0.4,5.2-1,5.3-5.2c0-4.3-1.2-5.7-5.3-5C842.6,557.2,840.9,557,839.2,557z
	 M861,554.5c2,0,4,0,6,0c1.2,0,2.2-0.2,2.8-1.6c2-5.2-0.3-8.8-6-8.8c-3,0-6,0-9,0c-1.3,0-2.5-0.2-2.9,1.8c-1.5,6.5,0,8.6,6.6,8.6
	C859.3,554.5,860.2,554.5,861,554.5z M818.4,554.5c1.9-2,8.2,3.8,8.2-4.5c0-4.8-1.2-6.6-6.1-6c-2.5,0.3-5,0.3-7.5,0
	c-3.7-0.4-4.4,1.3-4.5,4.5c-0.2,4.2,0.6,6.9,5.6,5.9C815.3,554.3,816.5,554.5,818.4,554.5z M839,528.8c1.7,0,3.4-0.2,5,0
	c5.2,0.9,5.7-1.9,5.5-6c-0.1-2-0.9-3-2.8-3.4c-4.3-1-8.5-0.8-12.9-0.5c-5.1,0.4-5,3.5-4.8,7.2c0.2,4.6,3.6,2.1,5.6,2.6
	C835.9,529.1,837.5,528.8,839,528.8z M839.5,570c-1.8,0-3.7,0.3-5.4,0c-4.9-0.9-5.3,1.7-5.1,5.5c0.1,2.3,1,3.1,3.1,3.6
	c4.4,1,8.7,0.9,13.2,0.3c4.9-0.7,4.1-3.7,4.2-6.8c0.1-4.2-3.1-2.3-5-2.6C842.8,569.8,841.1,570,839.5,570z M817.9,541.5
	c1.8,0,3.6,0,5.5,0c1.1,0,2.3,0.2,3-1.2c2.2-4.4-0.5-9.2-5.3-9.2c-0.8,0-1.7,0-2.5,0c-4,0-9.4,5.1-8.3,8.8c1,3.6,4.8,0.7,7.2,1.6
	C817.6,541.6,817.7,541.5,817.9,541.5z M860.3,541.5L860.3,541.5c2,0,4,0,6,0c0.9,0,2.4,0.1,2.1-1.3c-0.7-3.2-1.6-7.1-4.5-8.5
	c-3.3-1.5-7.4-0.8-11.2-0.2c-0.3,0-0.5,0.8-0.6,1.2c-1.8,5.9,0.2,8.8,6.3,8.8C859,541.5,859.6,541.5,860.3,541.5z M868.4,557
	c-4,0-7.7,0.4-11.3-0.1c-4.7-0.6-5.9,1.4-5.1,5.5c0.3,1.6-1.5,4,1.8,4.7C863.1,569,866.2,567,868.4,557z M819.2,567.1
	c4.1-0.1,7.8,1.2,7.4-4.8c-0.3-4.3-1.1-6-5.5-5.4c-2.6,0.4-5.3,0.2-7.9,0c-2.5-0.1-3.7,0.2-2.6,3.2
	C812.3,564.7,814,568.7,819.2,567.1z M816.9,528.8c2.8,0,5,0,7,0c1.3,0,2.4-0.2,2.5-1.7c0-1.6,0.8-3.6-0.4-4.8s-2.4,0.5-3.4,1.1
	C820.6,524.7,818.7,526,816.9,528.8z M826.2,577c0.5-8,0.4-8.1-9.2-6.5C819.7,573.2,822.5,575.3,826.2,577z M852.5,521.8
	c-1.3,7.8-0.1,8.6,8.8,6.2C858.7,525.3,856,523.2,852.5,521.8z M852.1,577c3.6-1.8,6.5-3.6,9-6.7C851.9,569.3,851.9,569.3,852.1,577
	z"/>
<path class="st6" d="M880,513.3c0,2.7-1.2,4.1-3.6,4.1c-2.4,0.1-3.8-1.2-3.8-3.7c0-2.3,1.1-3.8,3.6-3.9
	C878.6,509.9,879.8,511.2,880,513.3z"/>
<path class="st6" d="M863.5,509.9c2.5,0.1,3.6,1.4,3.6,3.8c0,2.5-1.4,3.7-3.7,3.7s-3.7-1.3-3.6-3.8
	C859.9,511.2,861.1,510,863.5,509.9z"/>
<path class="st6" d="M840.6,624.3c-0.7,1.9,1.6,6.6-1.3,6.6c-3.1,0-0.9-4.6-1.3-7.1c-0.4-1.9-0.1-3.9,0-5.9c0-0.8,0.1-1.7,1.2-1.8
	c1,0,1.5,0.7,1.5,1.6C840.6,619.7,840.6,621.6,840.6,624.3z"/>
<path class="st6" d="M774,781.3c-3.9-0.5-6.1-3.1-7.6-6.5c-1.3-2.9-2.4-5.9-3.8-8.7c-3.3-6.4-5.6-7.3-12.4-5.7
	c-1.8,0.4-3.8,0.9-5.4,0.3c-5.1-1.9-8.1,0.1-11.1,4c-3.1,4-7.8,6.2-12.6,7.7c-11.4,3.8-19.7-2.1-22.4-15.7c0-1.3,0-2.7,0-4
	c2.2-5.9,4.2-7.2,10.5-6.8c4.2,0.2,8.2,1.4,12.4,0.9s7.8-1.3,8-6.8c0.1-3,1.6-6.1,4-7.8c3.3-2.3,2.9-4.6,1.1-7.4
	c-1.9-6.9-2.5-13.8,0.3-20.6c4.3-10.7,20-13.6,27.9-5.1c3.3,3.5,3.2,7.5-0.8,12.5c-2.9,3.7-6,7.1-7.4,11.7c-1,3.1-0.8,5.3,2.2,7.2
	c3.1,2,4.9,5.1,5.5,8.6c0.5,2.8,1.8,3.5,4.5,3.9c6.5,1.1,12.4,3.8,17.1,8.6c4.7,4.8,7.1,10.3,4.5,16.8
	C786,775.2,781.7,780.4,774,781.3z M732.7,743.3c-0.1,8.1,5.7,14.3,13.3,14.5c7.2,0.1,13.8-6.3,13.8-13.6
	c0.1-7.5-6.1-13.8-13.5-13.9C739,730.1,732.7,736.1,732.7,743.3z M786,762c-0.7-6.1-6.2-9.9-12.5-13.1c-2.8-1.4-6-2.7-9.1-2.1
	c-2.9,0.5-2,4.2-3.7,6c-0.6,0.6-1,1.3-1.5,2c-0.5,0.8-0.6,1.6,0.2,2.2c5.8,4.3,7.6,11.1,10.5,17.2c1.2,2.6,3.2,4.2,6.4,3.1
	C781.1,775.6,786,768.8,786,762z M716.7,770.1c4.2-0.3,8.9-2.7,13-6.2c5.7-4.7,5.7-5.1,1.8-11.2c-0.4-0.7-0.9-1.4-1.2-2.2
	c-0.5-1.2-1-2-2.5-1.4c-6.3,2.8-12.7,1.3-19.1,0.2c-3.3-0.5-5.6,0.4-6.5,3.8C700.1,761,707.2,770,716.7,770.1z M744.7,726.8
	c1.8-1.2,5.5,1.8,5.9-1.1c1.2-7.2,5.9-12.1,9.8-17.5c2.1-2.9,1.9-5.4-1.2-7.7c-8.7-6.3-20-2.1-22.1,8.3c-0.8,4.2-0.8,8.6,0.3,12.8
	C738.4,725.2,739.1,729.3,744.7,726.8z"/>
<path class="st3" d="M734.7,725c1.8,2.8,2.1,5.1-1.1,7.4c-2.4,1.8-3.9,4.8-4,7.8c-0.2,5.5-3.8,6.3-8,6.8s-8.3-0.7-12.4-0.9
	c-6.3-0.4-8.3,0.9-10.5,6.8c-1.3-3.9-1.2-7.3,3.4-9.2c1.4-0.5,1.9-1.7,2-3.1c3,0.5,2.7-2.1,3.3-3.7c0.6,1.7,1.6,3.3,1.3,5.2
	c-0.2,1.2-0.8,2.4,1,2.7c1.2,0.2,2.9,0.2,3-1c0.9-8.1,8.6-6.9,13.2-9.6C730.1,732,733.5,729.7,734.7,725z"/>
<path class="st6" d="M788.9,740.2c0,1.3,0.4,3-1.3,3.3c-2.3,0.4-2.1-1.8-2.2-3c-1.2-11.1-5.9-20.2-14.5-27.3
	c-0.9-0.8-2.6-1.6-1.3-3.2c1.1-1.4,2.3-0.4,3.4,0.4C781.1,715.8,788.7,730.1,788.9,740.2z"/>
<path class="st6" d="M707.4,737c-0.7,1.7-0.3,4.2-3.3,3.7c-1.2-10.5,8.6-28,18.2-32.5c1.2-0.5,2.5-1,3.1,0.2c0.8,1.6-0.8,2.3-1.8,3
	C714.7,717.8,709.2,726.2,707.4,737z"/>
<path class="st6" d="M745.3,786.9c-5-0.3-11.6-1.1-17.6-4.3c-1.1-0.6-2.7-1.2-1.7-2.9c0.7-1.2,2-0.8,3.1-0.3
	c10.5,4.7,21.1,5.3,31.9,1.1c1.3-0.5,2.4-0.4,2.9,1c0.5,1.5-0.8,2-1.9,2.5C757.2,785.8,752.2,787,745.3,786.9z"/>
<path class="st6" d="M234,528.6c5,0,10,0,15,0c6.8,0.1,13.7,0.3,20.5,0.1c3.1-0.1,4,0.9,4,4c-0.1,24.5-0.1,49,0,73.4
	c0,3.2-1.3,3.8-4.2,3.8c-30.8-0.1-61.6-0.1-92.4,0c-3.3,0-4.3-0.9-4.3-4.2c0.1-24.3,0.1-48.6,0-72.9c0-3.5,1.3-4.1,4.4-4.1
	C196.1,528.8,215.1,528.7,234,528.6z M223,606.9c14.5,0,29-0.1,43.5,0.1c3.5,0,4.4-0.9,4.4-4.4c-0.2-22.1-0.1-44.3,0-66.4
	c0-3.3-0.7-4.6-4.4-4.6c-29,0.1-57.9,0.1-86.9,0c-3.4,0-4.2,1.2-4.1,4.3c0.1,22.3,0.2,44.6,0,66.9c0,3.8,1.4,4.2,4.6,4.2
	C194.3,606.9,208.7,606.9,223,606.9z"/>
<path class="st6" d="M302.3,598.2c-0.1,6.4-5.7,11.8-12,11.6c-6.5-0.2-11.5-5.5-11.5-12.1c0.1-6.4,5.6-11.8,12-11.6
	C297.2,586.3,302.4,591.8,302.3,598.2z M299.5,597.9c-0.1-4.8-4.1-8.9-9-8.9c-4.8,0-9,4-9,8.8c0,5.1,4.2,9.2,9.2,9.1
	C295.6,606.8,299.6,602.8,299.5,597.9z"/>
<path class="st6" d="M302.3,567.8c0,6.4-5.4,11.7-11.8,11.7c-6.5,0-11.7-5.2-11.7-11.8c0-6.5,5.2-11.7,11.8-11.7
	C297,556,302.3,561.3,302.3,567.8z M290.6,558.7c-4.9-0.1-9,3.8-9.2,8.6c-0.1,5,4,9.4,8.9,9.5c5,0.1,9.2-4.2,9.1-9.2
	C299.5,562.6,295.6,558.8,290.6,558.7z"/>
<path class="st6" d="M290.9,528.8c0.7,0,1.3,0,2,0c9.8,0,10.2,0.5,9,10.4c-0.2,1.7-0.6,2.8-2.6,2.8c-5.8,0-11.7,0-17.5,0
	c-1.9,0-2.8-0.8-2.7-2.7c0-0.2,0-0.3,0-0.5C278.3,528.8,278.3,528.8,290.9,528.8z M290.4,539.1c1.5,0,3-0.1,4.5,0
	c2.5,0.1,4.4,0.3,4.3-3.4c-0.1-3.2-0.9-4.4-4.2-4.1c-3,0.3-6,0.2-8.9,0s-4.1,0.5-4,3.8c0,3.1,0.9,4.2,3.9,3.8
	C287.4,538.9,288.9,539.1,290.4,539.1z"/>
<path class="st7" d="M290,337.9c0,3.8,0.1,7.6,0,11.5c-0.1,4.1-2.6,5.4-6.3,5.3c-3.5-0.1-5.8-1.3-5.8-5.2c0-7.6,0-15.3,0-23
	c0-4,2.5-5,5.9-5.1c3.4,0,6,1.2,6.1,5S290,334,290,337.9L290,337.9z M285.3,338.3c0-3.2,0-6.3,0-9.5c0-1,0.1-2.2-1.2-2.4
	c-1.4-0.1-1.5,1.1-1.5,2c0,6.3,0,12.6,0,18.9c0,1,0.2,2.2,1.5,2.1c1.4-0.1,1.2-1.4,1.2-2.3C285.3,344.3,285.3,341.3,285.3,338.3z"/>
<path class="st1" d="M278,293.8c0-2.6,0-5.3,0-8c-0.1-4,2.1-5.6,5.9-5.7c3.9,0,6,1.8,6,5.7c0.1,5.5,0.1,11,0,16.4
	c-0.1,3.8-2.1,5.7-6,5.7c-3.8,0-5.9-1.6-5.9-5.7C278,299.4,278,296.6,278,293.8z M284.5,284.2c-2.2,5-2.1,15.4,0,19.1
	C284.5,296.9,284.5,291.1,284.5,284.2z"/>
<path class="st1" d="M772.6,400.2c-23-0.4-40.1-18.5-39.7-42.4c0.3-21,19.5-39,41.1-38.6c22.2,0.4,40.2,19.2,39.9,41.6
	C813.6,382.6,794.8,400.6,772.6,400.2z M773.4,322.8c-20.2-0.1-37.2,16.2-37.4,35.7c-0.2,21.6,16.3,38.6,37.3,38.6
	c20.1,0,37-16.7,37.3-36.7C811,339.8,794.2,322.9,773.4,322.8z"/>
<path class="st7" d="M747.9,301c-3.5,0-7,0-10.5,0c-2.8,0-4.4-1.4-4.6-4.1c-0.1-1.5-1.1-3.8,1.3-4.1c2.5-0.4,1.6,1.9,1.8,3.2
	c0.2,1.9,1.5,1.9,2.9,1.9c6,0,12,0,17.9,0c2.4,0,3.3-1,3.1-3.3c-0.1-1.1,0.3-2,1.6-1.9c1.4,0.1,1.3,1.2,1.4,2.2
	c0.5,4.1-1.3,6.1-5.6,6.2C754.2,301.1,751.1,301,747.9,301z"/>
<path class="st11" d="M798.1,299.4c-0.1,1.3-0.9,1.6-2,1.6c-1.2,0-1.9-0.5-1.9-1.8c0-1.6,1-1.9,2.3-1.9
	C797.8,297.4,798.1,298.3,798.1,299.4z"/>
<path class="st11" d="M803.7,297.3c1.7-0.1,2.4,0.5,2.3,2c0,1.2-0.7,1.7-1.9,1.6c-1,0-2-0.2-2.1-1.5
	C801.9,298.2,802.5,297.3,803.7,297.3z"/>
<path class="st11" d="M811.8,301c-1.2,0-1.8-0.4-1.9-1.7c0-1.5,0.7-2,2.1-2c1.1,0,1.8,0.5,1.9,1.7C814,300.6,813.2,301,811.8,301z"
	/>
<path class="st3" d="M327.3,730.8c2.6,2.9,3.6,6,4.6,9.1c0.6,2,0.2,4-1.6,5.3c-1.6,1.2-3.5,1.2-5.1,0.1c-2-1.3-2.6-3.5-1.8-5.7
	C324.5,736.8,325.9,734,327.3,730.8z"/>
<path class="st3" d="M327.2,802c2.8,0.5,3.9,2.5,3.8,5c-0.1,2.6-1.9,3.9-4.4,3.6c-2.5-0.3-3.8-2-3.5-4.6
	C323.2,803.5,324.6,802.1,327.2,802z"/>
<path class="st3" d="M839.2,544.1c1.5,0,3,0.2,4.5,0c5-0.9,6.2,1.3,6,6c-0.2,3.4-0.9,4.8-4.5,4.5c-3.8-0.3-7.7-0.4-11.4,0
	c-4.8,0.6-4.7-2-4.8-5.5c-0.1-3.8,0.8-5.6,4.9-5C835.5,544.4,837.3,544.2,839.2,544.1z"/>
<path class="st3" d="M839,541.5c-1.7,0-3.3-0.2-5,0c-4.2,0.7-5.1-1.2-5.2-5.2c-0.2-4.6,1.4-5.8,5.6-5.3c3.1,0.3,6.3,0.1,9.5,0.1
	c5,0,7.6,4.3,5.5,9.1c-0.7,1.5-1.8,1.2-2.9,1.2C843.9,541.6,841.5,541.5,839,541.5z"/>
<path class="st3" d="M839.2,557c1.7,0,3.3,0.2,5,0c4.1-0.6,5.3,0.8,5.3,5c0,4.1-1.1,5.6-5.3,5.2c-4.1-0.4-8.3-0.2-12.5-0.1
	c-4.7,0.1-2.6-3.3-2.7-5.3c-0.1-1.8-1.7-5.1,2.7-4.8C834.2,557.2,836.8,557,839.2,557z"/>
<path class="st3" d="M861,554.5c-0.8,0-1.7,0-2.5,0c-6.5,0-8-2.1-6.6-8.6c0.4-1.9,1.6-1.8,2.9-1.8c3,0,6,0,9,0c5.6,0,8,3.6,6,8.8
	c-0.5,1.4-1.6,1.5-2.8,1.6C865,554.5,863,554.5,861,554.5z"/>
<path class="st3" d="M818.4,554.5c-1.9,0-3.1-0.2-4.2,0c-5,0.9-5.8-1.7-5.6-5.9c0.1-3.3,0.9-5,4.5-4.5c2.5,0.3,5,0.3,7.5,0
	c4.8-0.7,6.1,1.1,6.1,6C826.6,558.3,820.4,552.5,818.4,554.5z"/>
<path class="st3" d="M839,528.8c-1.5,0-3.1,0.3-4.5-0.1c-2-0.5-5.4,2-5.6-2.6c-0.2-3.7-0.3-6.8,4.8-7.2c4.4-0.3,8.6-0.5,12.9,0.5
	c1.9,0.4,2.6,1.4,2.8,3.4c0.3,4.1-0.3,6.9-5.5,6C842.4,528.6,840.7,528.8,839,528.8z"/>
<path class="st3" d="M839.5,570c1.7,0,3.3-0.2,5,0.1c1.9,0.3,5-1.7,5,2.6c0,3.1,0.7,6.1-4.2,6.8c-4.5,0.6-8.8,0.7-13.2-0.3
	c-2.1-0.5-3-1.3-3.1-3.6c-0.2-3.8,0.2-6.5,5.1-5.5C835.8,570.3,837.6,570,839.5,570z"/>
<path class="st3" d="M817.9,541.5c-0.2,0-0.3,0-0.5,0c-2.4-0.9-6.2,2-7.2-1.6c-1.1-3.6,4.3-8.8,8.3-8.8c0.8,0,1.7,0,2.5,0
	c4.8,0,7.5,4.8,5.3,9.2c-0.7,1.4-1.9,1.1-3,1.2C821.5,541.6,819.7,541.5,817.9,541.5z"/>
<path class="st3" d="M860.3,541.5c-0.7,0-1.3,0-2,0c-6.1,0-8.1-2.8-6.3-8.8c0.1-0.4,0.4-1.2,0.6-1.2c3.7-0.6,7.8-1.4,11.2,0.2
	c2.9,1.4,3.8,5.2,4.5,8.5c0.3,1.4-1.2,1.3-2.1,1.3C864.3,541.6,862.3,541.5,860.3,541.5L860.3,541.5z"/>
<path class="st3" d="M868.4,557c-2.2,10-5.3,12-14.6,10.1c-3.3-0.7-1.5-3.1-1.8-4.7c-0.8-4,0.4-6.1,5.1-5.5
	C860.7,557.4,864.4,557,868.4,557z"/>
<path class="st3" d="M819.2,567.1c-5.1,1.6-6.8-2.5-8.6-6.9c-1.2-3.1,0.1-3.3,2.6-3.2c2.6,0.1,5.3,0.3,7.9,0
	c4.4-0.6,5.2,1.1,5.5,5.4C827,568.4,823.2,567,819.2,567.1z"/>
<path class="st3" d="M816.9,528.8c1.8-2.8,3.7-4.1,5.7-5.3c1-0.6,2.2-2.3,3.4-1.1s0.5,3.1,0.4,4.8c0,1.5-1.2,1.7-2.5,1.7
	C821.8,528.8,819.7,528.8,816.9,528.8z"/>
<path class="st3" d="M826.2,577c-3.8-1.6-6.5-3.7-9.2-6.5C826.6,568.9,826.7,569,826.2,577z"/>
<path class="st3" d="M852.5,521.8c3.4,1.4,6.1,3.6,8.8,6.2C852.4,530.3,851.3,529.5,852.5,521.8z"/>
<path class="st3" d="M852.1,577c-0.2-7.7-0.2-7.7,9-6.7C858.7,573.4,855.8,575.2,852.1,577z"/>
<path class="st3" d="M732.7,743.3c0.1-7.2,6.3-13.2,13.7-13.1c7.4,0.1,13.5,6.5,13.5,13.9c-0.1,7.3-6.6,13.7-13.8,13.6
	C738.3,757.6,732.6,751.4,732.7,743.3z"/>
<path class="st3" d="M786,762c-0.1,6.8-5,13.6-9.7,15.3c-3.2,1.1-5.2-0.4-6.4-3.1c-2.9-6.1-4.6-12.9-10.5-17.2
	c-0.8-0.6-0.8-1.4-0.2-2.2c0.5-0.7,0.9-1.4,1.5-2c1.7-1.7,0.8-5.5,3.7-6c3.1-0.5,6.2,0.7,9.1,2.1C779.8,752.1,785.3,755.9,786,762z"
	/>
<path class="st3" d="M716.7,770.1c-9.4,0-16.5-9.1-14.5-16.9c0.9-3.3,3.2-4.3,6.5-3.8c6.4,1.1,12.8,2.5,19.1-0.2
	c1.5-0.7,2.1,0.1,2.5,1.4c0.3,0.8,0.7,1.5,1.2,2.2c3.8,6.2,3.8,6.5-1.8,11.2C725.5,767.3,720.9,769.8,716.7,770.1z"/>
<path class="st3" d="M744.7,726.8c-5.6,2.4-6.3-1.6-7.2-5.2c-1-4.2-1.1-8.6-0.3-12.8c2-10.4,13.4-14.5,22.1-8.3
	c3.1,2.2,3.3,4.7,1.2,7.7c-4,5.4-8.6,10.3-9.8,17.5C750.1,728.6,746.5,725.7,744.7,726.8z"/>
<path class="st3" d="M223,606.9c-14.3,0-28.6-0.1-43,0.1c-3.2,0-4.6-0.4-4.6-4.2c0.2-22.3,0.1-44.6,0-66.9c0-3.2,0.8-4.3,4.1-4.3
	c29,0.1,57.9,0.1,86.9,0c3.7,0,4.4,1.3,4.4,4.6c-0.1,22.2-0.1,44.3,0,66.4c0,3.5-0.9,4.5-4.4,4.4C252,606.8,237.5,606.9,223,606.9z
	 M223.8,582c-11.8,0-23.6,0.1-35.4-0.1c-3.9-0.1-4.6,1.4-3.6,4.8c1.5,5.5,6.4,10.1,12.1,10.1c17.1,0.1,34.2,0.2,51.4,0
	c6.6-0.1,11.4-4.2,13.1-10.2c1.1-3.6,0-4.7-3.7-4.7C246.4,582.1,235.1,582,223.8,582z M204.9,568.3c0.1,1.6-0.9,2.8-1.9,3.9
	c-0.6,0.7-1.5,1.6-0.4,2.5c1,0.9,1.8,0,2.5-0.6c3.1-2.7,3.8-7.8,0.6-10.5c-4.4-3.7-5-6.7-0.2-10.2c0.7-0.5,1-1.4,0.4-2.2
	s-1.5-0.4-2.2,0c-4.9,2.4-6,8.5-2.1,12.5C203,565,204.7,566.1,204.9,568.3z M247.2,569.8c-0.2-3.5-0.8-5.5-2.4-6.7
	c-4.3-3.1-4.8-6.1-0.4-9.4c0.8-0.6,1.8-1.4,0.9-2.4c-1-1.2-2-0.3-3,0.4c-4.8,3.2-5.2,8.3-0.8,12.5c2.3,2.2,3.6,4.2,1.5,7.3
	c-0.7,1-3.1,2.1-0.8,3.4c1.6,0.9,2.5-1.1,3.4-2.2C246.6,571.4,247.2,570,247.2,569.8z M227.3,555.4c0.1-1.7-0.4-3.7-2.1-4.9
	c-4.6-3.3-4.6-6.5-0.1-9.8c0.7-0.5,1.3-1.3,0.8-2.1c-0.7-1-1.7-0.6-2.6-0.1c-5.1,2.8-5.8,8.7-1.4,12.8c2.3,2.2,3.6,4.2,1.6,7.3
	c-0.7,1-2.6,2.1-1,3.2c1.6,1.2,2.5-0.8,3.5-1.8C226.9,558.9,227.3,557.4,227.3,555.4z"/>
<path class="st3" d="M299.5,597.9c0.1,4.8-3.9,8.8-8.8,9c-5,0.1-9.2-4-9.2-9.1c0-4.8,4.2-8.8,9-8.8
	C295.4,589.1,299.4,593.1,299.5,597.9z"/>
<path class="st3" d="M290.6,558.7c5,0.1,8.8,3.9,8.9,8.9s-4.2,9.3-9.1,9.2s-9-4.5-8.9-9.5C281.6,562.5,285.7,558.6,290.6,558.7z"/>
<path class="st3" d="M290.4,539.1c-1.5,0-3-0.2-4.5,0c-3,0.4-3.9-0.7-3.9-3.8c0-3.2,1.2-4,4-3.8c3,0.2,6,0.3,8.9,0
	c3.3-0.3,4.1,0.9,4.2,4.1c0.1,3.7-1.9,3.5-4.3,3.4C293.3,539,291.9,539.1,290.4,539.1z"/>
<path class="st4" d="M285.3,338.3c0,3,0,6,0,9c0,1,0.1,2.2-1.2,2.3s-1.5-1.1-1.5-2.1c0-6.3,0-12.6,0-18.9c0-1,0.2-2.2,1.5-2
	c1.3,0.1,1.2,1.4,1.2,2.4C285.3,332,285.3,335.1,285.3,338.3z"/>
<path class="st4" d="M284.5,284.2c0,6.9,0,12.7,0,19.1C282.4,299.6,282.3,289.2,284.5,284.2z"/>
<path class="st4" d="M773.4,322.8c20.8,0.1,37.5,17,37.2,37.6c-0.3,20-17.2,36.7-37.3,36.7c-21,0-37.5-17-37.3-38.6
	C736.2,338.9,753.2,322.6,773.4,322.8z M803.3,359.9c-0.1-16.9-13.3-30.1-30-30.1c-16.5,0-30.3,13.5-30.1,29.5
	c0.2,17.2,13.7,30.7,30.3,30.5C790.1,389.6,803.4,376.2,803.3,359.9z"/>
<path class="st6" d="M223.8,582c11.3,0,22.6,0.1,33.9-0.1c3.7,0,4.8,1.1,3.7,4.7c-1.8,6-6.5,10.2-13.1,10.2
	c-17.1,0.2-34.2,0.2-51.4,0c-5.7,0-10.6-4.6-12.1-10.1c-0.9-3.4-0.2-4.9,3.6-4.8C200.2,582.1,212,582,223.8,582z M258.9,584.9
	c-5.6,0-10.7,0-15.9,0c-17.1,0-34.3,0-51.5,0c-1.2,0-2.9-0.8-3.6,0.7c-0.7,1.5,0.4,2.9,1.3,4c2.3,2.9,5.2,4.3,9,4.3
	c16.5-0.1,33,0,49.5,0C253.7,593.9,256.5,591.7,258.9,584.9z"/>
<path class="st6" d="M204.9,568.3c-0.2-2.2-2-3.3-3.4-4.7c-3.9-3.9-2.9-10,2.1-12.5c0.8-0.4,1.6-0.8,2.2,0c0.6,0.7,0.4,1.6-0.4,2.2
	c-4.8,3.5-4.2,6.5,0.2,10.2c3.2,2.7,2.6,7.9-0.6,10.5c-0.8,0.6-1.5,1.5-2.5,0.6c-1.1-0.9-0.2-1.8,0.4-2.5
	C204,571,205,569.9,204.9,568.3z"/>
<path class="st6" d="M247.2,569.8c0,0.2-0.6,1.6-1.5,2.7c-0.9,1.1-1.8,3.1-3.4,2.2c-2.3-1.3,0.1-2.4,0.8-3.4c2.1-3,0.8-5.1-1.5-7.3
	c-4.4-4.1-4-9.3,0.8-12.5c1-0.7,2.1-1.5,3-0.4c0.8,1-0.2,1.9-0.9,2.4c-4.4,3.3-3.9,6.3,0.4,9.4C246.4,564.3,247,566.3,247.2,569.8z"
	/>
<path class="st6" d="M227.3,555.4c0,2-0.4,3.4-1.4,4.6c-0.9,1-1.9,3-3.5,1.8c-1.5-1.2,0.4-2.2,1-3.2c2-3,0.7-5.1-1.6-7.3
	c-4.4-4.2-3.7-10,1.4-12.8c0.9-0.5,1.9-0.9,2.6,0.1c0.5,0.8-0.1,1.6-0.8,2.1c-4.4,3.4-4.4,6.5,0.1,9.8
	C226.9,551.7,227.4,553.8,227.3,555.4z"/>
<path class="st1" d="M803.3,359.9c0.1,16.3-13.2,29.6-29.8,29.9c-16.7,0.3-30.2-13.3-30.3-30.5c-0.2-16,13.6-29.5,30.1-29.5
	C790,329.8,803.2,343,803.3,359.9z M746.6,359.5c-0.1,14.3,10.2,26.6,26.7,27.2c14.5,0.5,26.8-12.3,26.7-26.7
	c-0.1-15-12.2-27-27-26.8C758.4,333.3,746.4,345.3,746.6,359.5z"/>
<path class="st3" d="M258.9,584.9c-2.4,6.8-5.2,9-11.1,9c-16.5,0-33,0-49.5,0c-3.8,0-6.8-1.4-9-4.3c-0.9-1.2-2-2.5-1.3-4
	s2.4-0.7,3.6-0.7c17.1,0,34.3,0,51.5,0C248.2,584.9,253.3,584.9,258.9,584.9z"/>
<path class="st4" d="M746.6,359.5c-0.2-14.2,11.8-26.2,26.4-26.4c14.9-0.2,26.9,11.8,27,26.8c0.1,14.4-12.2,27.2-26.7,26.7
	C756.8,386.1,746.5,373.8,746.6,359.5z M774.9,337.1c-1.1,0.1-2.8-0.2-2.8,1.7c-0.1,1.6,1.3,1.6,2.5,1.9c1.9,0.4,4,0.5,5.8,1.3
	c7.2,3,11.2,8.5,12.2,16.3c0.1,1.2,0.1,3.1,2,2.9s1.5-1.9,1.4-3.2C795.3,347.6,785.1,337.3,774.9,337.1z"/>
<path class="st1" d="M774.9,337.1c10.2,0.1,20.5,10.4,20.9,20.8c0.1,1.3,0.5,3-1.4,3.2s-1.8-1.7-2-2.9c-0.9-7.8-5-13.3-12.2-16.3
	c-1.8-0.8-3.8-0.9-5.8-1.3c-1.1-0.2-2.5-0.3-2.5-1.9C772.1,336.9,773.8,337.2,774.9,337.1z"/>
</svg>
